  0
SECTION
  2
HEADER
  0
ENDSEC
  0
SECTION
  2
TABLES
  0
ENDSEC
  0
SECTION
  2
BLOCKS
  0
BLOCK
  8
1
  2
BACK
 70
0
 10
0.000
 20
0.000
  0
TEXT
  8
1
 10
613.500
 20
2739.000
 40
10.000
  1
Piece Name: BACK
  0
TEXT
  8
1
 10
613.500
 20
2739.000
 40
10.000
  1
Size: M
  0
TEXT
  8
1
 10
613.500
 20
2739.000
 40
10.000
  1
Quantity: 1,0
  0
TEXT
  8
1
 10
613.500
 20
2739.000
 40
10.000
  1
Material: SHL
  0
POLYLINE
  8
1
 66
1
 70
0
  0
VERTEX
  8
1
 10
863.730
 20
2739.919
  0
VERTEX
  8
1
 10
863.638
 20
2755.947
  0
VERTEX
  8
1
 10
863.692
 20
2797.426
  0
VERTEX
  8
1
 10
864.383
 20
2854.454
  0
VERTEX
  8
1
 10
866.205
 20
2917.126
  0
VERTEX
  8
1
 10
868.933
 20
2969.418
  0
VERTEX
  8
1
 10
872.010
 20
3013.205
  0
VERTEX
  8
1
 10
874.525
 20
3043.288
  0
VERTEX
  8
1
 10
875.566
 20
3054.471
  0
VERTEX
  8
1
 10
812.220
 20
3058.694
  0
VERTEX
  8
1
 10
427.197
 20
3083.285
  0
VERTEX
  8
1
 10
402.249
 20
3084.879
  0
VERTEX
  8
1
 10
362.221
 20
3087.435
  0
VERTEX
  8
1
 10
352.485
 20
2906.265
  0
VERTEX
  8
1
 10
350.876
 20
2739.917
  0
VERTEX
  8
1
 10
352.485
 20
2573.574
  0
VERTEX
  8
1
 10
362.221
 20
2392.403
  0
VERTEX
  8
1
 10
402.249
 20
2394.960
  0
VERTEX
  8
1
 10
427.197
 20
2396.553
  0
VERTEX
  8
1
 10
812.220
 20
2421.144
  0
VERTEX
  8
1
 10
875.566
 20
2425.368
  0
VERTEX
  8
1
 10
874.525
 20
2436.550
  0
VERTEX
  8
1
 10
872.010
 20
2466.634
  0
VERTEX
  8
1
 10
868.933
 20
2510.420
  0
VERTEX
  8
1
 10
866.205
 20
2562.713
  0
VERTEX
  8
1
 10
864.383
 20
2625.385
  0
VERTEX
  8
1
 10
863.692
 20
2682.412
  0
VERTEX
  8
1
 10
863.638
 20
2723.892
  0
VERTEX
  8
1
 10
863.730
 20
2739.919
  0
SEQEND
  0
TEXT
  8
2
 10
426.241
 20
3068.316
 40
10.000
  1
# 1
  0
TEXT
  8
2
 10
415.873
 20
2739.917
 40
10.000
  1
# 1
  0
TEXT
  8
2
 10
401.293
 20
3069.909
 40
10.000
  1
# 1
  0
TEXT
  8
2
 10
390.874
 20
2739.917
 40
10.000
  1
# 1
  0
TEXT
  8
2
 10
415.873
 20
2739.921
 40
10.000
  1
# 1
  0
TEXT
  8
2
 10
426.241
 20
2411.523
 40
10.000
  1
# 1
  0
TEXT
  8
2
 10
390.874
 20
2739.921
 40
10.000
  1
# 1
  0
TEXT
  8
2
 10
401.293
 20
2409.929
 40
10.000
  1
# 1
  0
TEXT
  8
2
 10
863.730
 20
2739.919
 40
10.000
  1
# 1
  0
TEXT
  8
2
 10
875.566
 20
3054.471
 40
10.000
  1
# 1
  0
TEXT
  8
2
 10
812.220
 20
3058.694
 40
10.000
  1
# 1
  0
TEXT
  8
2
 10
427.197
 20
3083.285
 40
10.000
  1
# 1
  0
TEXT
  8
2
 10
402.249
 20
3084.879
 40
10.000
  1
# 1
  0
TEXT
  8
2
 10
362.221
 20
3087.435
 40
10.000
  1
# 1
  0
TEXT
  8
2
 10
352.485
 20
2906.265
 40
10.000
  1
# 1
  0
TEXT
  8
2
 10
350.876
 20
2739.917
 40
10.000
  1
# 1
  0
TEXT
  8
2
 10
352.485
 20
2573.574
 40
10.000
  1
# 1
  0
TEXT
  8
2
 10
362.221
 20
2392.403
 40
10.000
  1
# 1
  0
TEXT
  8
2
 10
402.249
 20
2394.960
 40
10.000
  1
# 1
  0
TEXT
  8
2
 10
427.197
 20
2396.553
 40
10.000
  1
# 1
  0
TEXT
  8
2
 10
812.220
 20
2421.144
 40
10.000
  1
# 1
  0
TEXT
  8
2
 10
875.566
 20
2425.368
 40
10.000
  1
# 1
  0
POINT
  8
2
 10
863.730
 20
2739.919
  0
POINT
  8
2
 10
875.566
 20
3054.471
  0
POINT
  8
2
 10
812.220
 20
3058.694
  0
POINT
  8
2
 10
427.197
 20
3083.285
  0
POINT
  8
2
 10
402.249
 20
3084.879
  0
POINT
  8
2
 10
362.221
 20
3087.435
  0
POINT
  8
2
 10
352.485
 20
2906.265
  0
POINT
  8
2
 10
350.876
 20
2739.917
  0
POINT
  8
2
 10
352.485
 20
2573.574
  0
POINT
  8
2
 10
362.221
 20
2392.403
  0
POINT
  8
2
 10
402.249
 20
2394.960
  0
POINT
  8
2
 10
427.197
 20
2396.553
  0
POINT
  8
2
 10
812.220
 20
2421.144
  0
POINT
  8
2
 10
875.566
 20
2425.368
  0
POINT
  8
2
 10
426.241
 20
3068.316
  0
POINT
  8
2
 10
415.873
 20
2739.917
  0
POINT
  8
2
 10
401.293
 20
3069.909
  0
POINT
  8
2
 10
390.874
 20
2739.917
  0
POINT
  8
2
 10
415.873
 20
2739.921
  0
POINT
  8
2
 10
426.241
 20
2411.523
  0
POINT
  8
2
 10
390.874
 20
2739.921
  0
POINT
  8
2
 10
401.293
 20
2409.929
  0
POINT
  8
3
 10
863.638
 20
2755.947
  0
POINT
  8
3
 10
863.692
 20
2797.426
  0
POINT
  8
3
 10
864.383
 20
2854.454
  0
POINT
  8
3
 10
866.205
 20
2917.126
  0
POINT
  8
3
 10
868.933
 20
2969.418
  0
POINT
  8
3
 10
872.010
 20
3013.205
  0
POINT
  8
3
 10
874.525
 20
3043.288
  0
POINT
  8
3
 10
874.525
 20
2436.550
  0
POINT
  8
3
 10
872.010
 20
2466.634
  0
POINT
  8
3
 10
868.933
 20
2510.420
  0
POINT
  8
3
 10
866.205
 20
2562.713
  0
POINT
  8
3
 10
864.383
 20
2625.385
  0
POINT
  8
3
 10
863.692
 20
2682.412
  0
POINT
  8
3
 10
863.638
 20
2723.892
  0
POINT
  8
3
 10
425.345
 20
3056.638
  0
POINT
  8
3
 10
423.178
 20
3025.224
  0
POINT
  8
3
 10
420.520
 20
2979.506
  0
POINT
  8
3
 10
418.150
 20
2924.914
  0
POINT
  8
3
 10
416.540
 20
2859.480
  0
POINT
  8
3
 10
415.896
 20
2799.946
  0
POINT
  8
3
 10
415.810
 20
2756.647
  0
POINT
  8
3
 10
400.393
 20
3058.170
  0
POINT
  8
3
 10
398.214
 20
3026.593
  0
POINT
  8
3
 10
395.541
 20
2980.640
  0
POINT
  8
3
 10
393.159
 20
2925.772
  0
POINT
  8
3
 10
391.541
 20
2860.030
  0
POINT
  8
3
 10
390.896
 20
2800.220
  0
POINT
  8
3
 10
390.811
 20
2756.723
  0
POINT
  8
3
 10
415.810
 20
2723.192
  0
POINT
  8
3
 10
415.896
 20
2679.893
  0
POINT
  8
3
 10
416.540
 20
2620.359
  0
POINT
  8
3
 10
418.150
 20
2554.925
  0
POINT
  8
3
 10
420.520
 20
2500.333
  0
POINT
  8
3
 10
423.178
 20
2454.615
  0
POINT
  8
3
 10
425.345
 20
2423.201
  0
POINT
  8
3
 10
390.811
 20
2723.116
  0
POINT
  8
3
 10
390.896
 20
2679.619
  0
POINT
  8
3
 10
391.541
 20
2619.809
  0
POINT
  8
3
 10
393.159
 20
2554.066
  0
POINT
  8
3
 10
395.541
 20
2499.199
  0
POINT
  8
3
 10
398.214
 20
2453.245
  0
POINT
  8
3
 10
400.393
 20
2421.669
  0
TEXT
  8
4
 10
352.485
 20
2906.265
 40
10.000
  1
# 1
  0
TEXT
  8
4
 10
352.485
 20
2573.574
 40
10.000
  1
# 1
  0
POINT
  8
4
 10
352.485
 20
2906.265
 30
3.500
 50
358.324
  0
POINT
  8
4
 10
352.485
 20
2573.574
 30
3.500
 50
1.676
  0
LINE
  8
7
 10
414.983
 20
2740.000
 11
799.623
 21
2740.000
  0
POLYLINE
  8
8
 66
1
 70
0
  0
VERTEX
  8
8
 10
426.241
 20
3068.316
  0
VERTEX
  8
8
 10
425.345
 20
3056.638
  0
VERTEX
  8
8
 10
423.178
 20
3025.224
  0
VERTEX
  8
8
 10
420.520
 20
2979.506
  0
VERTEX
  8
8
 10
418.150
 20
2924.914
  0
VERTEX
  8
8
 10
416.540
 20
2859.480
  0
VERTEX
  8
8
 10
415.896
 20
2799.946
  0
VERTEX
  8
8
 10
415.810
 20
2756.647
  0
VERTEX
  8
8
 10
415.873
 20
2739.917
  0
SEQEND
  0
POLYLINE
  8
8
 66
1
 70
0
  0
VERTEX
  8
8
 10
401.293
 20
3069.909
  0
VERTEX
  8
8
 10
400.393
 20
3058.170
  0
VERTEX
  8
8
 10
398.214
 20
3026.593
  0
VERTEX
  8
8
 10
395.541
 20
2980.640
  0
VERTEX
  8
8
 10
393.159
 20
2925.772
  0
VERTEX
  8
8
 10
391.541
 20
2860.030
  0
VERTEX
  8
8
 10
390.896
 20
2800.220
  0
VERTEX
  8
8
 10
390.811
 20
2756.723
  0
VERTEX
  8
8
 10
390.874
 20
2739.917
  0
SEQEND
  0
POLYLINE
  8
8
 66
1
 70
0
  0
VERTEX
  8
8
 10
415.873
 20
2739.921
  0
VERTEX
  8
8
 10
415.810
 20
2723.192
  0
VERTEX
  8
8
 10
415.896
 20
2679.893
  0
VERTEX
  8
8
 10
416.540
 20
2620.359
  0
VERTEX
  8
8
 10
418.150
 20
2554.925
  0
VERTEX
  8
8
 10
420.520
 20
2500.333
  0
VERTEX
  8
8
 10
423.178
 20
2454.615
  0
VERTEX
  8
8
 10
425.345
 20
2423.201
  0
VERTEX
  8
8
 10
426.241
 20
2411.523
  0
SEQEND
  0
POLYLINE
  8
8
 66
1
 70
0
  0
VERTEX
  8
8
 10
390.874
 20
2739.921
  0
VERTEX
  8
8
 10
390.811
 20
2723.116
  0
VERTEX
  8
8
 10
390.896
 20
2679.619
  0
VERTEX
  8
8
 10
391.541
 20
2619.809
  0
VERTEX
  8
8
 10
393.159
 20
2554.066
  0
VERTEX
  8
8
 10
395.541
 20
2499.199
  0
VERTEX
  8
8
 10
398.214
 20
2453.245
  0
VERTEX
  8
8
 10
400.393
 20
2421.669
  0
VERTEX
  8
8
 10
401.293
 20
2409.929
  0
SEQEND
  0
TEXT
  8
8
 10
426.241
 20
3068.316
 40
10.000
  1
# 1
  0
TEXT
  8
8
 10
415.873
 20
2739.917
 40
10.000
  1
# 1
  0
TEXT
  8
8
 10
401.293
 20
3069.909
 40
10.000
  1
# 1
  0
TEXT
  8
8
 10
390.874
 20
2739.917
 40
10.000
  1
# 1
  0
TEXT
  8
8
 10
415.873
 20
2739.921
 40
10.000
  1
# 1
  0
TEXT
  8
8
 10
426.241
 20
2411.523
 40
10.000
  1
# 1
  0
TEXT
  8
8
 10
390.874
 20
2739.921
 40
10.000
  1
# 1
  0
TEXT
  8
8
 10
401.293
 20
2409.929
 40
10.000
  1
# 1
  0
TEXT
  8
15
 10
549.000
 20
2690.000
 40
10.000
  1
BROWNEI RAM NARESH
  0
ENDBLK
  0
BLOCK
  8
1
  2
FRONT
 70
0
 10
0.000
 20
0.000
  0
TEXT
  8
1
 10
582.000
 20
1865.500
 40
10.000
  1
Piece Name: FRONT
  0
TEXT
  8
1
 10
582.000
 20
1865.500
 40
10.000
  1
Size: M
  0
TEXT
  8
1
 10
582.000
 20
1865.500
 40
10.000
  1
Quantity: 1,0
  0
TEXT
  8
1
 10
582.000
 20
1865.500
 40
10.000
  1
Material: SHL
  0
POLYLINE
  8
1
 66
1
 70
0
  0
VERTEX
  8
1
 10
853.251
 20
1866.276
  0
VERTEX
  8
1
 10
853.251
 20
2114.307
  0
VERTEX
  8
1
 10
831.339
 20
2119.323
  0
VERTEX
  8
1
 10
776.628
 20
2131.748
  0
VERTEX
  8
1
 10
705.659
 20
2147.644
  0
VERTEX
  8
1
 10
634.972
 20
2163.075
  0
VERTEX
  8
1
 10
596.171
 20
2171.215
  0
VERTEX
  8
1
 10
566.337
 20
2177.265
  0
VERTEX
  8
1
 10
547.183
 20
2181.034
  0
VERTEX
  8
1
 10
540.418
 20
2182.333
  0
VERTEX
  8
1
 10
350.800
 20
2218.406
  0
VERTEX
  8
1
 10
349.056
 20
2211.033
  0
VERTEX
  8
1
 10
344.609
 20
2191.463
  0
VERTEX
  8
1
 10
338.638
 20
2163.516
  0
VERTEX
  8
1
 10
332.319
 20
2131.014
  0
VERTEX
  8
1
 10
326.509
 20
2096.735
  0
VERTEX
  8
1
 10
321.933
 20
2066.397
  0
VERTEX
  8
1
 10
318.935
 20
2044.728
  0
VERTEX
  8
1
 10
317.859
 20
2036.454
  0
VERTEX
  8
1
 10
311.153
 20
1866.379
  0
VERTEX
  8
1
 10
317.794
 20
1696.302
  0
VERTEX
  8
1
 10
318.866
 20
1688.028
  0
VERTEX
  8
1
 10
321.856
 20
1666.358
  0
VERTEX
  8
1
 10
326.421
 20
1636.018
  0
VERTEX
  8
1
 10
332.218
 20
1601.737
  0
VERTEX
  8
1
 10
338.524
 20
1569.233
  0
VERTEX
  8
1
 10
344.485
 20
1541.283
  0
VERTEX
  8
1
 10
348.924
 20
1521.711
  0
VERTEX
  8
1
 10
350.665
 20
1514.338
  0
VERTEX
  8
1
 10
540.297
 20
1550.338
  0
VERTEX
  8
1
 10
547.063
 20
1551.634
  0
VERTEX
  8
1
 10
566.218
 20
1555.397
  0
VERTEX
  8
1
 10
596.054
 20
1561.435
  0
VERTEX
  8
1
 10
634.858
 20
1569.560
  0
VERTEX
  8
1
 10
705.551
 20
1584.964
  0
VERTEX
  8
1
 10
776.526
 20
1600.833
  0
VERTEX
  8
1
 10
831.242
 20
1613.236
  0
VERTEX
  8
1
 10
853.156
 20
1618.244
  0
VERTEX
  8
1
 10
853.251
 20
1866.276
  0
SEQEND
  0
TEXT
  8
2
 10
387.031
 20
2196.355
 40
10.000
  1
# 1
  0
TEXT
  8
2
 10
351.155
 20
1866.372
 40
10.000
  1
# 1
  0
TEXT
  8
2
 10
411.570
 20
2191.747
 40
10.000
  1
# 1
  0
TEXT
  8
2
 10
376.154
 20
1866.367
 40
10.000
  1
# 1
  0
TEXT
  8
2
 10
791.257
 20
2113.133
 40
10.000
  1
# 1
  0
TEXT
  8
2
 10
791.251
 20
1866.278
 40
10.000
  1
# 1
  0
TEXT
  8
2
 10
351.155
 20
1866.372
 40
10.000
  1
# 1
  0
TEXT
  8
2
 10
386.904
 20
1536.375
 40
10.000
  1
# 1
  0
TEXT
  8
2
 10
376.154
 20
1866.367
 40
10.000
  1
# 1
  0
TEXT
  8
2
 10
411.445
 20
1540.973
 40
10.000
  1
# 1
  0
TEXT
  8
2
 10
791.251
 20
1866.297
 40
10.000
  1
# 1
  0
TEXT
  8
2
 10
791.163
 20
1619.442
 40
10.000
  1
# 1
  0
TEXT
  8
2
 10
853.251
 20
1866.276
 40
10.000
  1
# 1
  0
TEXT
  8
2
 10
853.251
 20
2114.307
 40
10.000
  1
# 1
  0
TEXT
  8
2
 10
540.418
 20
2182.333
 40
10.000
  1
# 1
  0
TEXT
  8
2
 10
350.800
 20
2218.406
 40
10.000
  1
# 1
  0
TEXT
  8
2
 10
317.859
 20
2036.454
 40
10.000
  1
# 1
  0
TEXT
  8
2
 10
311.153
 20
1866.379
 40
10.000
  1
# 1
  0
TEXT
  8
2
 10
317.794
 20
1696.302
 40
10.000
  1
# 1
  0
TEXT
  8
2
 10
350.665
 20
1514.338
 40
10.000
  1
# 1
  0
TEXT
  8
2
 10
540.297
 20
1550.338
 40
10.000
  1
# 1
  0
TEXT
  8
2
 10
853.156
 20
1618.244
 40
10.000
  1
# 1
  0
POINT
  8
2
 10
853.251
 20
1866.276
  0
POINT
  8
2
 10
853.251
 20
2114.307
  0
POINT
  8
2
 10
540.418
 20
2182.333
  0
POINT
  8
2
 10
350.800
 20
2218.406
  0
POINT
  8
2
 10
317.859
 20
2036.454
  0
POINT
  8
2
 10
311.153
 20
1866.379
  0
POINT
  8
2
 10
317.794
 20
1696.302
  0
POINT
  8
2
 10
350.665
 20
1514.338
  0
POINT
  8
2
 10
540.297
 20
1550.338
  0
POINT
  8
2
 10
853.156
 20
1618.244
  0
POINT
  8
2
 10
387.031
 20
2196.355
  0
POINT
  8
2
 10
351.155
 20
1866.372
  0
POINT
  8
2
 10
411.570
 20
2191.747
  0
POINT
  8
2
 10
376.154
 20
1866.367
  0
POINT
  8
2
 10
791.257
 20
2113.133
  0
POINT
  8
2
 10
791.251
 20
1866.278
  0
POINT
  8
2
 10
351.155
 20
1866.372
  0
POINT
  8
2
 10
386.904
 20
1536.375
  0
POINT
  8
2
 10
376.154
 20
1866.367
  0
POINT
  8
2
 10
411.445
 20
1540.973
  0
POINT
  8
2
 10
791.251
 20
1866.297
  0
POINT
  8
2
 10
791.163
 20
1619.442
  0
POINT
  8
3
 10
831.339
 20
2119.323
  0
POINT
  8
3
 10
776.628
 20
2131.748
  0
POINT
  8
3
 10
705.659
 20
2147.644
  0
POINT
  8
3
 10
634.972
 20
2163.075
  0
POINT
  8
3
 10
596.171
 20
2171.215
  0
POINT
  8
3
 10
566.337
 20
2177.265
  0
POINT
  8
3
 10
547.183
 20
2181.034
  0
POINT
  8
3
 10
349.056
 20
2211.033
  0
POINT
  8
3
 10
344.609
 20
2191.463
  0
POINT
  8
3
 10
338.638
 20
2163.516
  0
POINT
  8
3
 10
332.319
 20
2131.014
  0
POINT
  8
3
 10
326.509
 20
2096.735
  0
POINT
  8
3
 10
321.933
 20
2066.397
  0
POINT
  8
3
 10
318.935
 20
2044.728
  0
POINT
  8
3
 10
318.866
 20
1688.028
  0
POINT
  8
3
 10
321.856
 20
1666.358
  0
POINT
  8
3
 10
326.421
 20
1636.018
  0
POINT
  8
3
 10
332.218
 20
1601.737
  0
POINT
  8
3
 10
338.524
 20
1569.233
  0
POINT
  8
3
 10
344.485
 20
1541.283
  0
POINT
  8
3
 10
348.924
 20
1521.711
  0
POINT
  8
3
 10
547.063
 20
1551.634
  0
POINT
  8
3
 10
566.218
 20
1555.397
  0
POINT
  8
3
 10
596.054
 20
1561.435
  0
POINT
  8
3
 10
634.858
 20
1569.560
  0
POINT
  8
3
 10
705.551
 20
1584.964
  0
POINT
  8
3
 10
776.526
 20
1600.833
  0
POINT
  8
3
 10
831.242
 20
1613.236
  0
POINT
  8
3
 10
383.948
 20
2181.022
  0
POINT
  8
3
 10
376.545
 20
2143.399
  0
POINT
  8
3
 10
367.588
 20
2096.048
  0
POINT
  8
3
 10
359.844
 20
2051.533
  0
POINT
  8
3
 10
356.050
 20
2024.783
  0
POINT
  8
3
 10
354.076
 20
2003.362
  0
POINT
  8
3
 10
353.235
 20
1982.907
  0
POINT
  8
3
 10
352.843
 20
1959.054
  0
POINT
  8
3
 10
352.356
 20
1929.385
  0
POINT
  8
3
 10
351.801
 20
1899.213
  0
POINT
  8
3
 10
351.344
 20
1875.791
  0
POINT
  8
3
 10
408.516
 20
2176.527
  0
POINT
  8
3
 10
401.184
 20
2139.203
  0
POINT
  8
3
 10
392.320
 20
2092.284
  0
POINT
  8
3
 10
384.669
 20
2048.275
  0
POINT
  8
3
 10
380.955
 20
2022.094
  0
POINT
  8
3
 10
379.025
 20
2001.176
  0
POINT
  8
3
 10
378.207
 20
1981.209
  0
POINT
  8
3
 10
377.826
 20
1957.882
  0
POINT
  8
3
 10
377.346
 20
1928.636
  0
POINT
  8
3
 10
376.796
 20
1898.839
  0
POINT
  8
3
 10
376.343
 20
1875.684
  0
POINT
  8
3
 10
791.256
 20
2101.653
  0
POINT
  8
3
 10
791.255
 20
2071.642
  0
POINT
  8
3
 10
791.253
 20
2029.747
  0
POINT
  8
3
 10
791.251
 20
1982.613
  0
POINT
  8
3
 10
791.251
 20
1939.190
  0
POINT
  8
3
 10
791.251
 20
1902.005
  0
POINT
  8
3
 10
791.251
 20
1876.040
  0
POINT
  8
3
 10
351.341
 20
1856.952
  0
POINT
  8
3
 10
351.788
 20
1833.530
  0
POINT
  8
3
 10
352.332
 20
1803.358
  0
POINT
  8
3
 10
352.808
 20
1773.689
  0
POINT
  8
3
 10
353.191
 20
1749.836
  0
POINT
  8
3
 10
354.024
 20
1729.381
  0
POINT
  8
3
 10
355.990
 20
1707.959
  0
POINT
  8
3
 10
359.773
 20
1681.207
  0
POINT
  8
3
 10
367.500
 20
1636.689
  0
POINT
  8
3
 10
376.439
 20
1589.335
  0
POINT
  8
3
 10
383.828
 20
1551.709
  0
POINT
  8
3
 10
376.339
 20
1857.050
  0
POINT
  8
3
 10
376.783
 20
1833.895
  0
POINT
  8
3
 10
377.322
 20
1804.097
  0
POINT
  8
3
 10
377.791
 20
1774.851
  0
POINT
  8
3
 10
378.163
 20
1751.524
  0
POINT
  8
3
 10
378.974
 20
1731.557
  0
POINT
  8
3
 10
380.895
 20
1710.638
  0
POINT
  8
3
 10
384.599
 20
1684.456
  0
POINT
  8
3
 10
392.234
 20
1640.444
  0
POINT
  8
3
 10
401.080
 20
1593.521
  0
POINT
  8
3
 10
408.397
 20
1556.195
  0
POINT
  8
3
 10
791.247
 20
1856.535
  0
POINT
  8
3
 10
791.237
 20
1830.570
  0
POINT
  8
3
 10
791.223
 20
1793.385
  0
POINT
  8
3
 10
791.207
 20
1749.962
  0
POINT
  8
3
 10
791.190
 20
1702.828
  0
POINT
  8
3
 10
791.176
 20
1660.933
  0
POINT
  8
3
 10
791.166
 20
1630.922
  0
TEXT
  8
4
 10
317.859
 20
2036.454
 40
10.000
  1
# 1
  0
TEXT
  8
4
 10
317.794
 20
1696.302
 40
10.000
  1
# 1
  0
POINT
  8
4
 10
317.859
 20
2036.454
 30
3.500
 50
354.227
  0
POINT
  8
4
 10
317.794
 20
1696.302
 30
3.500
 50
5.751
  0
LINE
  8
7
 10
378.919
 20
1866.500
 11
785.490
 21
1866.500
  0
POLYLINE
  8
8
 66
1
 70
0
  0
VERTEX
  8
8
 10
387.031
 20
2196.355
  0
VERTEX
  8
8
 10
383.948
 20
2181.022
  0
VERTEX
  8
8
 10
376.545
 20
2143.399
  0
VERTEX
  8
8
 10
367.588
 20
2096.048
  0
VERTEX
  8
8
 10
359.844
 20
2051.533
  0
VERTEX
  8
8
 10
356.050
 20
2024.783
  0
VERTEX
  8
8
 10
354.076
 20
2003.362
  0
VERTEX
  8
8
 10
353.235
 20
1982.907
  0
VERTEX
  8
8
 10
352.843
 20
1959.054
  0
VERTEX
  8
8
 10
352.356
 20
1929.385
  0
VERTEX
  8
8
 10
351.801
 20
1899.213
  0
VERTEX
  8
8
 10
351.344
 20
1875.791
  0
VERTEX
  8
8
 10
351.155
 20
1866.372
  0
SEQEND
  0
POLYLINE
  8
8
 66
1
 70
0
  0
VERTEX
  8
8
 10
411.570
 20
2191.747
  0
VERTEX
  8
8
 10
408.516
 20
2176.527
  0
VERTEX
  8
8
 10
401.184
 20
2139.203
  0
VERTEX
  8
8
 10
392.320
 20
2092.284
  0
VERTEX
  8
8
 10
384.669
 20
2048.275
  0
VERTEX
  8
8
 10
380.955
 20
2022.094
  0
VERTEX
  8
8
 10
379.025
 20
2001.176
  0
VERTEX
  8
8
 10
378.207
 20
1981.209
  0
VERTEX
  8
8
 10
377.826
 20
1957.882
  0
VERTEX
  8
8
 10
377.346
 20
1928.636
  0
VERTEX
  8
8
 10
376.796
 20
1898.839
  0
VERTEX
  8
8
 10
376.343
 20
1875.684
  0
VERTEX
  8
8
 10
376.154
 20
1866.367
  0
SEQEND
  0
POLYLINE
  8
8
 66
1
 70
0
  0
VERTEX
  8
8
 10
791.257
 20
2113.133
  0
VERTEX
  8
8
 10
791.256
 20
2101.653
  0
VERTEX
  8
8
 10
791.255
 20
2071.642
  0
VERTEX
  8
8
 10
791.253
 20
2029.747
  0
VERTEX
  8
8
 10
791.251
 20
1982.613
  0
VERTEX
  8
8
 10
791.251
 20
1939.190
  0
VERTEX
  8
8
 10
791.251
 20
1902.005
  0
VERTEX
  8
8
 10
791.251
 20
1876.040
  0
VERTEX
  8
8
 10
791.251
 20
1866.278
  0
SEQEND
  0
POLYLINE
  8
8
 66
1
 70
0
  0
VERTEX
  8
8
 10
351.155
 20
1866.372
  0
VERTEX
  8
8
 10
351.341
 20
1856.952
  0
VERTEX
  8
8
 10
351.788
 20
1833.530
  0
VERTEX
  8
8
 10
352.332
 20
1803.358
  0
VERTEX
  8
8
 10
352.808
 20
1773.689
  0
VERTEX
  8
8
 10
353.191
 20
1749.836
  0
VERTEX
  8
8
 10
354.024
 20
1729.381
  0
VERTEX
  8
8
 10
355.990
 20
1707.959
  0
VERTEX
  8
8
 10
359.773
 20
1681.207
  0
VERTEX
  8
8
 10
367.500
 20
1636.689
  0
VERTEX
  8
8
 10
376.439
 20
1589.335
  0
VERTEX
  8
8
 10
383.828
 20
1551.709
  0
VERTEX
  8
8
 10
386.904
 20
1536.375
  0
SEQEND
  0
POLYLINE
  8
8
 66
1
 70
0
  0
VERTEX
  8
8
 10
376.154
 20
1866.367
  0
VERTEX
  8
8
 10
376.339
 20
1857.050
  0
VERTEX
  8
8
 10
376.783
 20
1833.895
  0
VERTEX
  8
8
 10
377.322
 20
1804.097
  0
VERTEX
  8
8
 10
377.791
 20
1774.851
  0
VERTEX
  8
8
 10
378.163
 20
1751.524
  0
VERTEX
  8
8
 10
378.974
 20
1731.557
  0
VERTEX
  8
8
 10
380.895
 20
1710.638
  0
VERTEX
  8
8
 10
384.599
 20
1684.456
  0
VERTEX
  8
8
 10
392.234
 20
1640.444
  0
VERTEX
  8
8
 10
401.080
 20
1593.521
  0
VERTEX
  8
8
 10
408.397
 20
1556.195
  0
VERTEX
  8
8
 10
411.445
 20
1540.973
  0
SEQEND
  0
POLYLINE
  8
8
 66
1
 70
0
  0
VERTEX
  8
8
 10
791.251
 20
1866.297
  0
VERTEX
  8
8
 10
791.247
 20
1856.535
  0
VERTEX
  8
8
 10
791.237
 20
1830.570
  0
VERTEX
  8
8
 10
791.223
 20
1793.385
  0
VERTEX
  8
8
 10
791.207
 20
1749.962
  0
VERTEX
  8
8
 10
791.190
 20
1702.828
  0
VERTEX
  8
8
 10
791.176
 20
1660.933
  0
VERTEX
  8
8
 10
791.166
 20
1630.922
  0
VERTEX
  8
8
 10
791.163
 20
1619.442
  0
SEQEND
  0
TEXT
  8
8
 10
387.031
 20
2196.355
 40
10.000
  1
# 1
  0
TEXT
  8
8
 10
351.155
 20
1866.372
 40
10.000
  1
# 1
  0
TEXT
  8
8
 10
411.570
 20
2191.747
 40
10.000
  1
# 1
  0
TEXT
  8
8
 10
376.154
 20
1866.367
 40
10.000
  1
# 1
  0
TEXT
  8
8
 10
791.257
 20
2113.133
 40
10.000
  1
# 1
  0
TEXT
  8
8
 10
791.251
 20
1866.278
 40
10.000
  1
# 1
  0
TEXT
  8
8
 10
351.155
 20
1866.372
 40
10.000
  1
# 1
  0
TEXT
  8
8
 10
386.904
 20
1536.375
 40
10.000
  1
# 1
  0
TEXT
  8
8
 10
376.154
 20
1866.367
 40
10.000
  1
# 1
  0
TEXT
  8
8
 10
411.445
 20
1540.973
 40
10.000
  1
# 1
  0
TEXT
  8
8
 10
791.251
 20
1866.297
 40
10.000
  1
# 1
  0
TEXT
  8
8
 10
791.163
 20
1619.442
 40
10.000
  1
# 1
  0
TEXT
  8
15
 10
533.000
 20
1821.000
 40
10.000
  1
BROWNEI RAM NARESH
  0
ENDBLK
  0
BLOCK
  8
1
  2
BACK_LINI
 70
0
 10
0.000
 20
0.000
  0
TEXT
  8
1
 10
1184.500
 20
2757.500
 40
10.000
  1
Piece Name: BACK_LINI
  0
TEXT
  8
1
 10
1184.500
 20
2757.500
 40
10.000
  1
Size: M
  0
TEXT
  8
1
 10
1184.500
 20
2757.500
 40
10.000
  1
Quantity: 1,0
  0
TEXT
  8
1
 10
1184.500
 20
2757.500
 40
10.000
  1
Material: LINING
  0
POLYLINE
  8
1
 66
1
 70
0
  0
VERTEX
  8
1
 10
1409.891
 20
2757.800
  0
VERTEX
  8
1
 10
1409.799
 20
2773.827
  0
VERTEX
  8
1
 10
1409.852
 20
2815.307
  0
VERTEX
  8
1
 10
1410.544
 20
2872.335
  0
VERTEX
  8
1
 10
1412.366
 20
2935.007
  0
VERTEX
  8
1
 10
1415.094
 20
2987.299
  0
VERTEX
  8
1
 10
1418.171
 20
3031.086
  0
VERTEX
  8
1
 10
1420.686
 20
3061.169
  0
VERTEX
  8
1
 10
1421.727
 20
3072.352
  0
VERTEX
  8
1
 10
1358.412
 20
3076.573
  0
VERTEX
  8
1
 10
958.327
 20
3103.789
  0
VERTEX
  8
1
 10
948.633
 20
2923.352
  0
VERTEX
  8
1
 10
947.036
 20
2757.800
  0
VERTEX
  8
1
 10
948.633
 20
2592.248
  0
VERTEX
  8
1
 10
958.327
 20
2411.811
  0
VERTEX
  8
1
 10
1358.412
 20
2439.027
  0
VERTEX
  8
1
 10
1421.727
 20
2443.249
  0
VERTEX
  8
1
 10
1420.686
 20
2454.431
  0
VERTEX
  8
1
 10
1418.171
 20
2484.514
  0
VERTEX
  8
1
 10
1415.094
 20
2528.301
  0
VERTEX
  8
1
 10
1412.366
 20
2580.593
  0
VERTEX
  8
1
 10
1410.544
 20
2643.265
  0
VERTEX
  8
1
 10
1409.852
 20
2700.293
  0
VERTEX
  8
1
 10
1409.799
 20
2741.773
  0
VERTEX
  8
1
 10
1409.891
 20
2757.800
  0
SEQEND
  0
TEXT
  8
2
 10
1409.891
 20
2757.800
 40
10.000
  1
# 1
  0
TEXT
  8
2
 10
1421.727
 20
3072.352
 40
10.000
  1
# 1
  0
TEXT
  8
2
 10
1358.412
 20
3076.573
 40
10.000
  1
# 1
  0
TEXT
  8
2
 10
958.327
 20
3103.789
 40
10.000
  1
# 1
  0
TEXT
  8
2
 10
948.633
 20
2923.352
 40
10.000
  1
# 1
  0
TEXT
  8
2
 10
947.036
 20
2757.800
 40
10.000
  1
# 1
  0
TEXT
  8
2
 10
948.633
 20
2592.248
 40
10.000
  1
# 1
  0
TEXT
  8
2
 10
958.327
 20
2411.811
 40
10.000
  1
# 1
  0
TEXT
  8
2
 10
1358.412
 20
2439.027
 40
10.000
  1
# 1
  0
TEXT
  8
2
 10
1421.727
 20
2443.249
 40
10.000
  1
# 1
  0
POINT
  8
2
 10
1409.891
 20
2757.800
  0
POINT
  8
2
 10
1421.727
 20
3072.352
  0
POINT
  8
2
 10
1358.412
 20
3076.573
  0
POINT
  8
2
 10
958.327
 20
3103.789
  0
POINT
  8
2
 10
948.633
 20
2923.352
  0
POINT
  8
2
 10
947.036
 20
2757.800
  0
POINT
  8
2
 10
948.633
 20
2592.248
  0
POINT
  8
2
 10
958.327
 20
2411.811
  0
POINT
  8
2
 10
1358.412
 20
2439.027
  0
POINT
  8
2
 10
1421.727
 20
2443.249
  0
POINT
  8
3
 10
1409.799
 20
2773.827
  0
POINT
  8
3
 10
1409.852
 20
2815.307
  0
POINT
  8
3
 10
1410.544
 20
2872.335
  0
POINT
  8
3
 10
1412.366
 20
2935.007
  0
POINT
  8
3
 10
1415.094
 20
2987.299
  0
POINT
  8
3
 10
1418.171
 20
3031.086
  0
POINT
  8
3
 10
1420.686
 20
3061.169
  0
POINT
  8
3
 10
1420.686
 20
2454.431
  0
POINT
  8
3
 10
1418.171
 20
2484.514
  0
POINT
  8
3
 10
1415.094
 20
2528.301
  0
POINT
  8
3
 10
1412.366
 20
2580.593
  0
POINT
  8
3
 10
1410.544
 20
2643.265
  0
POINT
  8
3
 10
1409.852
 20
2700.293
  0
POINT
  8
3
 10
1409.799
 20
2741.773
  0
TEXT
  8
4
 10
948.633
 20
2923.352
 40
10.000
  1
# 1
  0
TEXT
  8
4
 10
948.633
 20
2592.248
 40
10.000
  1
# 1
  0
POINT
  8
4
 10
948.633
 20
2923.352
 30
3.500
 50
358.325
  0
POINT
  8
4
 10
948.633
 20
2592.248
 30
3.500
 50
1.675
  0
LINE
  8
7
 10
1004.899
 20
2758.500
 11
1352.031
 21
2758.500
  0
TEXT
  8
15
 10
1093.000
 20
2713.000
 40
10.000
  1
BROWNEI RAM NARESH
  0
ENDBLK
  0
BLOCK
  8
1
  2
FRONT_LINI
 70
0
 10
0.000
 20
0.000
  0
TEXT
  8
1
 10
1172.000
 20
1856.500
 40
10.000
  1
Piece Name: FRONT_LINI
  0
TEXT
  8
1
 10
1172.000
 20
1856.500
 40
10.000
  1
Size: M
  0
TEXT
  8
1
 10
1172.000
 20
1856.500
 40
10.000
  1
Quantity: 1,0
  0
TEXT
  8
1
 10
1172.000
 20
1856.500
 40
10.000
  1
Material: LINING
  0
POLYLINE
  8
1
 66
1
 70
0
  0
VERTEX
  8
1
 10
1418.123
 20
1857.228
  0
VERTEX
  8
1
 10
1418.123
 20
2105.253
  0
VERTEX
  8
1
 10
1412.888
 20
2106.461
  0
VERTEX
  8
1
 10
1399.274
 20
2109.596
  0
VERTEX
  8
1
 10
1380.418
 20
2113.923
  0
VERTEX
  8
1
 10
1359.454
 20
2118.710
  0
VERTEX
  8
1
 10
1325.620
 20
2126.352
  0
VERTEX
  8
1
 10
1290.486
 20
2134.168
  0
VERTEX
  8
1
 10
1249.959
 20
2143.078
  0
VERTEX
  8
1
 10
1199.946
 20
2154.003
  0
VERTEX
  8
1
 10
1124.995
 20
2170.334
  0
VERTEX
  8
1
 10
1048.567
 20
2186.966
  0
VERTEX
  8
1
 10
989.151
 20
2199.889
  0
VERTEX
  8
1
 10
965.237
 20
2205.088
  0
VERTEX
  8
1
 10
963.498
 20
2197.730
  0
VERTEX
  8
1
 10
959.068
 20
2178.214
  0
VERTEX
  8
1
 10
953.125
 20
2150.381
  0
VERTEX
  8
1
 10
946.847
 20
2118.070
  0
VERTEX
  8
1
 10
941.120
 20
2084.271
  0
VERTEX
  8
1
 10
936.618
 20
2054.413
  0
VERTEX
  8
1
 10
933.673
 20
2033.113
  0
VERTEX
  8
1
 10
932.617
 20
2024.987
  0
VERTEX
  8
1
 10
926.078
 20
1857.228
  0
VERTEX
  8
1
 10
932.617
 20
1689.469
  0
VERTEX
  8
1
 10
933.673
 20
1681.343
  0
VERTEX
  8
1
 10
936.618
 20
1660.043
  0
VERTEX
  8
1
 10
941.120
 20
1630.185
  0
VERTEX
  8
1
 10
946.847
 20
1596.386
  0
VERTEX
  8
1
 10
953.125
 20
1564.076
  0
VERTEX
  8
1
 10
959.068
 20
1536.242
  0
VERTEX
  8
1
 10
963.498
 20
1516.726
  0
VERTEX
  8
1
 10
965.237
 20
1509.368
  0
VERTEX
  8
1
 10
989.151
 20
1514.567
  0
VERTEX
  8
1
 10
1048.567
 20
1527.490
  0
VERTEX
  8
1
 10
1124.995
 20
1544.123
  0
VERTEX
  8
1
 10
1199.946
 20
1560.453
  0
VERTEX
  8
1
 10
1249.959
 20
1571.378
  0
VERTEX
  8
1
 10
1290.486
 20
1580.289
  0
VERTEX
  8
1
 10
1325.620
 20
1588.104
  0
VERTEX
  8
1
 10
1359.454
 20
1595.746
  0
VERTEX
  8
1
 10
1380.418
 20
1600.533
  0
VERTEX
  8
1
 10
1399.274
 20
1604.860
  0
VERTEX
  8
1
 10
1412.888
 20
1607.995
  0
VERTEX
  8
1
 10
1418.123
 20
1609.203
  0
VERTEX
  8
1
 10
1418.123
 20
1857.228
  0
SEQEND
  0
TEXT
  8
2
 10
1356.128
 20
2104.083
 40
10.000
  1
# 1
  0
TEXT
  8
2
 10
1356.123
 20
1857.228
 40
10.000
  1
# 1
  0
TEXT
  8
2
 10
1356.123
 20
1857.228
 40
10.000
  1
# 1
  0
TEXT
  8
2
 10
1356.128
 20
1610.373
 40
10.000
  1
# 1
  0
TEXT
  8
2
 10
1418.123
 20
1857.228
 40
10.000
  1
# 1
  0
TEXT
  8
2
 10
1418.123
 20
2105.253
 40
10.000
  1
# 1
  0
TEXT
  8
2
 10
965.237
 20
2205.088
 40
10.000
  1
# 1
  0
TEXT
  8
2
 10
932.617
 20
2024.987
 40
10.000
  1
# 1
  0
TEXT
  8
2
 10
926.078
 20
1857.228
 40
10.000
  1
# 1
  0
TEXT
  8
2
 10
932.617
 20
1689.469
 40
10.000
  1
# 1
  0
TEXT
  8
2
 10
965.237
 20
1509.368
 40
10.000
  1
# 1
  0
TEXT
  8
2
 10
1418.123
 20
1609.203
 40
10.000
  1
# 1
  0
POINT
  8
2
 10
1418.123
 20
1857.228
  0
POINT
  8
2
 10
1418.123
 20
2105.253
  0
POINT
  8
2
 10
965.237
 20
2205.088
  0
POINT
  8
2
 10
932.617
 20
2024.987
  0
POINT
  8
2
 10
926.078
 20
1857.228
  0
POINT
  8
2
 10
932.617
 20
1689.469
  0
POINT
  8
2
 10
965.237
 20
1509.368
  0
POINT
  8
2
 10
1418.123
 20
1609.203
  0
POINT
  8
2
 10
1356.128
 20
2104.083
  0
POINT
  8
2
 10
1356.123
 20
1857.228
  0
POINT
  8
2
 10
1356.123
 20
1857.228
  0
POINT
  8
2
 10
1356.128
 20
1610.373
  0
POINT
  8
3
 10
1412.888
 20
2106.461
  0
POINT
  8
3
 10
1399.274
 20
2109.596
  0
POINT
  8
3
 10
1380.418
 20
2113.923
  0
POINT
  8
3
 10
1359.454
 20
2118.710
  0
POINT
  8
3
 10
1325.620
 20
2126.352
  0
POINT
  8
3
 10
1290.486
 20
2134.168
  0
POINT
  8
3
 10
1249.959
 20
2143.078
  0
POINT
  8
3
 10
1199.946
 20
2154.003
  0
POINT
  8
3
 10
1124.995
 20
2170.334
  0
POINT
  8
3
 10
1048.567
 20
2186.966
  0
POINT
  8
3
 10
989.151
 20
2199.889
  0
POINT
  8
3
 10
963.498
 20
2197.730
  0
POINT
  8
3
 10
959.068
 20
2178.214
  0
POINT
  8
3
 10
953.125
 20
2150.381
  0
POINT
  8
3
 10
946.847
 20
2118.070
  0
POINT
  8
3
 10
941.120
 20
2084.271
  0
POINT
  8
3
 10
936.618
 20
2054.413
  0
POINT
  8
3
 10
933.673
 20
2033.113
  0
POINT
  8
3
 10
933.673
 20
1681.343
  0
POINT
  8
3
 10
936.618
 20
1660.043
  0
POINT
  8
3
 10
941.120
 20
1630.185
  0
POINT
  8
3
 10
946.847
 20
1596.386
  0
POINT
  8
3
 10
953.125
 20
1564.076
  0
POINT
  8
3
 10
959.068
 20
1536.242
  0
POINT
  8
3
 10
963.498
 20
1516.726
  0
POINT
  8
3
 10
989.151
 20
1514.567
  0
POINT
  8
3
 10
1048.567
 20
1527.490
  0
POINT
  8
3
 10
1124.995
 20
1544.123
  0
POINT
  8
3
 10
1199.946
 20
1560.453
  0
POINT
  8
3
 10
1249.959
 20
1571.378
  0
POINT
  8
3
 10
1290.486
 20
1580.289
  0
POINT
  8
3
 10
1325.620
 20
1588.104
  0
POINT
  8
3
 10
1359.454
 20
1595.746
  0
POINT
  8
3
 10
1380.418
 20
1600.533
  0
POINT
  8
3
 10
1399.274
 20
1604.860
  0
POINT
  8
3
 10
1412.888
 20
1607.995
  0
POINT
  8
3
 10
1356.128
 20
2092.603
  0
POINT
  8
3
 10
1356.126
 20
2062.592
  0
POINT
  8
3
 10
1356.124
 20
2020.697
  0
POINT
  8
3
 10
1356.123
 20
1973.563
  0
POINT
  8
3
 10
1356.122
 20
1930.141
  0
POINT
  8
3
 10
1356.122
 20
1892.955
  0
POINT
  8
3
 10
1356.122
 20
1866.990
  0
POINT
  8
3
 10
1356.122
 20
1847.466
  0
POINT
  8
3
 10
1356.122
 20
1821.501
  0
POINT
  8
3
 10
1356.122
 20
1784.316
  0
POINT
  8
3
 10
1356.123
 20
1740.893
  0
POINT
  8
3
 10
1356.124
 20
1693.759
  0
POINT
  8
3
 10
1356.126
 20
1651.864
  0
POINT
  8
3
 10
1356.128
 20
1621.853
  0
TEXT
  8
4
 10
932.617
 20
2024.987
 40
10.000
  1
# 1
  0
TEXT
  8
4
 10
932.617
 20
1689.469
 40
10.000
  1
# 1
  0
POINT
  8
4
 10
932.617
 20
2024.987
 30
3.500
 50
354.223
  0
POINT
  8
4
 10
932.617
 20
1689.469
 30
3.500
 50
5.777
  0
LINE
  8
7
 10
987.593
 20
1857.500
 11
1356.618
 21
1857.500
  0
POLYLINE
  8
8
 66
1
 70
0
  0
VERTEX
  8
8
 10
1356.128
 20
2104.083
  0
VERTEX
  8
8
 10
1356.128
 20
2092.603
  0
VERTEX
  8
8
 10
1356.126
 20
2062.592
  0
VERTEX
  8
8
 10
1356.124
 20
2020.697
  0
VERTEX
  8
8
 10
1356.123
 20
1973.563
  0
VERTEX
  8
8
 10
1356.122
 20
1930.141
  0
VERTEX
  8
8
 10
1356.122
 20
1892.955
  0
VERTEX
  8
8
 10
1356.122
 20
1866.990
  0
VERTEX
  8
8
 10
1356.123
 20
1857.228
  0
SEQEND
  0
POLYLINE
  8
8
 66
1
 70
0
  0
VERTEX
  8
8
 10
1356.123
 20
1857.228
  0
VERTEX
  8
8
 10
1356.122
 20
1847.466
  0
VERTEX
  8
8
 10
1356.122
 20
1821.501
  0
VERTEX
  8
8
 10
1356.122
 20
1784.316
  0
VERTEX
  8
8
 10
1356.123
 20
1740.893
  0
VERTEX
  8
8
 10
1356.124
 20
1693.759
  0
VERTEX
  8
8
 10
1356.126
 20
1651.864
  0
VERTEX
  8
8
 10
1356.128
 20
1621.853
  0
VERTEX
  8
8
 10
1356.128
 20
1610.373
  0
SEQEND
  0
TEXT
  8
8
 10
1356.128
 20
2104.083
 40
10.000
  1
# 1
  0
TEXT
  8
8
 10
1356.123
 20
1857.228
 40
10.000
  1
# 1
  0
TEXT
  8
8
 10
1356.123
 20
1857.228
 40
10.000
  1
# 1
  0
TEXT
  8
8
 10
1356.128
 20
1610.373
 40
10.000
  1
# 1
  0
TEXT
  8
15
 10
1101.000
 20
1811.000
 40
10.000
  1
BROWNEI RAM NARESH
  0
ENDBLK
  0
ENDSEC
  0
SECTION
  2
ENTITIES
  0
INSERT
  8
1
  2
BACK
 10
0.000
 20
0.000
  0
INSERT
  8
1
  2
FRONT
 10
0.000
 20
0.000
  0
INSERT
  8
1
  2
BACK_LINI
 10
0.000
 20
0.000
  0
INSERT
  8
1
  2
FRONT_LINI
 10
0.000
 20
0.000
  0
TEXT
  8
1
 10
50.000
 20
50.000
 40
10.000
  1
Author: PolyPattern
  0
TEXT
  8
1
 10
50.000
 20
50.000
 40
10.000
  1
GRADE RULE TABLE:AMELIA AZUL prova
  0
TEXT
  8
1
 10
50.000
 20
50.000
 40
10.000
  1
Units: Metric
  0
TEXT
  8
1
 10
50.000
 20
50.000
 40
10.000
  1
Sample Size: M
  0
TEXT
  8
1
 10
50.000
 20
50.000
 40
10.000
  1
Style Name: AMELIA AZUL - FEELS EVENTS 26-40
  0
ENDSEC
  0
EOF
