  0
SECTION
  2
BLOCKS
  0
BLOCK
  8
1
  2
1
 70
64
 10
0.0
 20
0.0
  0
LINE
  8
7
 10
118.9168323295494
 20
301.7310524746318
 11
444.0563719480654
 21
301.7310866902741
  0
TEXT
  8
1
 10
228.0271355144603
 20
304.3602965041998
 40
8.799999952316284
 50
0.0000000000000000
 51
0.0000000000000000
 71
0
  1
Size: S
  0
TEXT
  8
1
 10
228.0289088494965
 20
292.9202967984689
 40
8.799999952316284
 50
0.0000000000000000
 51
0.0000000000000000
 71
0
  1
Piece Name: BACK
  0
TEXT
  8
1
 10
228.0306821845327
 20
281.4802970927379
 40
8.799999952316284
 50
0.0000000000000000
 51
0.0000000000000000
 71
0
  1
Category: CUT  - 1
  0
TEXT
  8
1
 10
228.0324555195689
 20
270.0402973870070
 40
8.799999952316284
 50
0.0000000000000000
 51
0.0000000000000000
 71
0
  1
Annotation: BROWNIE- BRIJESH
  0
TEXT
  8
1
 10
228.0289088494965
 20
292.9202967984689
 40
8.799999952316284
 50
0.0000000000000000
 51
0.0000000000000000
 71
0
  1
Material: SHL
  0
TEXT
  8
1
 10
228.0306821845327
 20
281.4802970927379
 40
8.799999952316284
 50
0.0000000000000000
 51
0.0000000000000000
 71
0
  1
Quantity: 1
  0
POLYLINE
  8
1
 66
1
 70
0
  0
VERTEX
  8
1
 10
-1.964692871192035
 20
301.7310408750046
  0
VERTEX
  8
1
 10
-0.8675477906256290
 20
368.7231902280320
 70
8
  0
VERTEX
  8
1
 10
1.643114288231793
 20
457.7823142209519
 70
8
  0
VERTEX
  8
1
 10
11.89688797620722
 20
601.4973916198649
  0
VERTEX
  8
1
 10
197.4912168578119
 20
568.8551191487778
  0
VERTEX
  8
1
 10
222.1133329466791
 20
564.5246366658677
  0
VERTEX
  8
1
 10
334.0982725218743
 20
544.8287657895554
  0
VERTEX
  8
1
 10
335.0235654906243
 20
524.5700530210007
 70
8
  0
VERTEX
  8
1
 10
339.3030073241204
 20
512.6963881650437
 70
8
  0
VERTEX
  8
1
 10
345.1656629637689
 20
506.4138106503953
 70
8
  0
VERTEX
  8
1
 10
373.9808561400384
 20
494.5541075864304
 70
8
  0
VERTEX
  8
1
 10
389.6436216429681
 20
492.7573661008347
 70
8
  0
VERTEX
  8
1
 10
427.0081235960931
 20
491.9730834165085
 70
8
  0
VERTEX
  8
1
 10
533.6340238646478
 20
504.1017607846726
  0
VERTEX
  8
1
 10
558.4488203124017
 20
512.4379805722703
  0
VERTEX
  8
1
 10
601.4973737791986
 20
391.9522170224656
  0
VERTEX
  8
1
 10
578.4893323973627
 20
380.8632735410203
  0
VERTEX
  8
1
 10
576.3227750853509
 20
379.4787291684617
 70
8
  0
VERTEX
  8
1
 10
571.6432096556634
 20
374.7930983701218
 70
8
  0
VERTEX
  8
1
 10
567.3247816161127
 20
362.2586898007859
 70
8
  0
VERTEX
  8
1
 10
564.9596311644525
 20
306.7299346127976
 70
8
  0
VERTEX
  8
1
 10
564.9359216510279
 20
301.7310969255449
  0
VERTEX
  8
1
 10
-1.964692871192035
 20
301.7310408750046
  0
SEQEND
  0
POLYLINE
  8
14
 66
1
 70
0
  0
VERTEX
  8
14
 10
10.53698579004259
 20
301.7310410694424
  0
VERTEX
  8
14
 10
11.63047970051064
 20
368.5011096869417
 70
8
  0
VERTEX
  8
14
 10
14.12976284780211
 20
457.2049979367722
 70
8
  0
VERTEX
  8
14
 10
23.37866802968687
 20
586.7861251035203
  0
VERTEX
  8
14
 10
195.3259946898431
 20
556.5440825620163
  0
VERTEX
  8
14
 10
219.9480726317377
 20
552.2136000791062
  0
VERTEX
  8
14
 10
322.0916654662103
 20
534.2486218610276
  0
VERTEX
  8
14
 10
322.6367857054681
 20
522.8915862241257
 70
8
  0
VERTEX
  8
14
 10
328.8365842894525
 20
505.8623580136765
 70
8
  0
VERTEX
  8
14
 10
371.8182279662103
 20
482.2426013150681
 70
8
  0
VERTEX
  8
14
 10
388.7312223509759
 20
480.2907160916794
 70
8
  0
VERTEX
  8
14
 10
427.3490166981376
 20
479.4777491015609
 70
8
  0
VERTEX
  8
14
 10
536.5553953246088
 20
491.8966941037644
  0
VERTEX
  8
14
 10
550.8039381102533
 20
496.6832808652390
  0
VERTEX
  8
14
 10
585.9440153294221
 20
398.3321471469078
  0
VERTEX
  8
14
 10
572.3884489134759
 20
391.7989806333054
  0
VERTEX
  8
14
 10
568.2814313963861
 20
389.1743544736374
 70
8
  0
VERTEX
  8
14
 10
561.1589719847650
 20
381.5997771420945
 70
8
  0
VERTEX
  8
14
 10
555.0539304808588
 20
364.6414641538132
 70
8
  0
VERTEX
  8
14
 10
552.4537183836908
 20
334.3555525937546
 70
8
  0
VERTEX
  8
14
 10
552.4596311644525
 20
306.7592314877976
 70
8
  0
VERTEX
  8
14
 10
552.4357511595697
 20
301.7310980954636
  0
VERTEX
  8
14
 10
10.53698579004259
 20
301.7310410694424
  0
SEQEND
  0
POINT
  8
2
 10
10.53698579004259
 20
301.7310410694424
  0
POINT
  8
2
 10
23.37866802968687
 20
586.7861251035203
  0
POINT
  8
2
 10
195.3259946898431
 20
556.5440825620163
  0
POINT
  8
2
 10
219.9480726317377
 20
552.2136000791062
  0
POINT
  8
2
 10
322.0916654662103
 20
534.2486218610276
  0
POINT
  8
2
 10
371.8182279662103
 20
482.2426013150681
  0
POINT
  8
2
 10
388.7312223509759
 20
480.2907160916794
  0
POINT
  8
2
 10
427.3490166981376
 20
479.4777491015609
  0
POINT
  8
2
 10
536.5553953246088
 20
491.8966941037644
  0
POINT
  8
2
 10
550.8039381102533
 20
496.6832808652390
  0
POINT
  8
2
 10
585.9440153294221
 20
398.3321471469078
  0
POINT
  8
2
 10
572.3884489134759
 20
391.7989806333054
  0
POINT
  8
2
 10
552.4596311644525
 20
306.7592314877976
  0
POINT
  8
2
 10
552.4357511595697
 20
301.7310980954636
  0
POINT
  8
2
 10
-1.964692871192035
 20
301.7310408750046
  0
POINT
  8
2
 10
11.89688797620722
 20
601.4973916198649
  0
POINT
  8
2
 10
197.4912168578119
 20
568.8551191487778
  0
POINT
  8
2
 10
222.1133329466791
 20
564.5246366658677
  0
POINT
  8
2
 10
334.0982725218743
 20
544.8287657895554
  0
POINT
  8
2
 10
373.9808561400384
 20
494.5541075864304
  0
POINT
  8
2
 10
389.6436216429681
 20
492.7573661008347
  0
POINT
  8
2
 10
427.0081235960931
 20
491.9730834165085
  0
POINT
  8
2
 10
533.6340238646478
 20
504.1017607846726
  0
POINT
  8
2
 10
558.4488203124017
 20
512.4379805722703
  0
POINT
  8
2
 10
601.4973737791986
 20
391.9522170224656
  0
POINT
  8
2
 10
578.4893323973627
 20
380.8632735410203
  0
POINT
  8
2
 10
564.9596311644525
 20
306.7299346127976
  0
POINT
  8
2
 10
564.9359216510279
 20
301.7310969255449
  0
POINT
  8
3
 10
-0.8675477906256290
 20
368.7231902280320
  0
POINT
  8
3
 10
1.643114288231793
 20
457.7823142209519
  0
POINT
  8
3
 10
335.0235654906243
 20
524.5700530210007
  0
POINT
  8
3
 10
339.3030073241204
 20
512.6963881650437
  0
POINT
  8
3
 10
345.1656629637689
 20
506.4138106503953
  0
POINT
  8
3
 10
373.9808561400384
 20
494.5541075864304
  0
POINT
  8
3
 10
389.6436216429681
 20
492.7573661008347
  0
POINT
  8
3
 10
427.0081235960931
 20
491.9730834165085
  0
POINT
  8
3
 10
576.3227750853509
 20
379.4787291684617
  0
POINT
  8
3
 10
571.6432096556634
 20
374.7930983701218
  0
POINT
  8
3
 10
567.3247816161127
 20
362.2586898007859
  0
POINT
  8
3
 10
564.9596311644525
 20
306.7299346127976
  0
POINT
  8
4
 10
197.4912168578119
 20
568.8551191487778
 30
4.800039843437698
 50
-99.97508913078262
230
4.799999892711639
  0
POINT
  8
4
 10
222.1133329466791
 20
564.5246366658677
 30
4.799988184246897
 50
-99.97508782953817
230
4.799999892711639
  0
POINT
  8
4
 10
373.9808561400384
 20
494.5541075864304
 30
4.799964415323349
 50
-99.93477705642179
230
4.799999892711639
  0
POINT
  8
4
 10
389.6436216429681
 20
492.7573661008347
 30
4.799752954052332
 50
-94.15934938964865
230
4.799999892711639
  0
POINT
  8
4
 10
533.6340238646478
 20
504.1017607846726
 30
4.800039458506146
 50
-76.23991317541798
230
4.799999892711639
  0
POINT
  8
4
 10
195.3259946898431
 20
556.5440825620163
 30
4.800042191583120
 50
-99.97509679154915
230
4.799999892711639
  0
POINT
  8
4
 10
219.9480726317377
 20
552.2136000791062
 30
4.799990532391417
 50
-99.97509536484343
230
4.799999892711639
  0
POINT
  8
4
 10
371.8182279662103
 20
482.2426013150681
 30
4.799958086524888
 50
-100.1208541008872
230
4.799999892711639
  0
POINT
  8
4
 10
388.7312223509759
 20
480.2907160916794
 30
4.799763930642424
 50
-94.08303081522963
230
4.799999892711639
  0
POINT
  8
4
 10
536.5553953246088
 20
491.8966941037644
 30
4.800044268696412
 50
-76.22876251329576
230
4.799999892711639
  0
LINE
  8
8
 10
427.3078062132806
 20
301.7302397885788
 11
427.3490049437493
 21
479.4779090085496
  0
POINT
  8
2
 10
427.3078062132806
 20
301.7302397885788
  0
POINT
  8
2
 10
427.3490049437493
 20
479.4779090085496
  0
LINE
  8
8
 10
442.4206449583978
 20
301.7296485105027
 11
552.4594785765619
 21
306.7592314877976
  0
POINT
  8
2
 10
442.4206449583978
 20
301.7296485105027
  0
POINT
  8
2
 10
552.4594785765619
 20
306.7592314877976
  0
TEXT
  8
8
 10
538.4707111199288
 20
329.7028641352742
 40
9.999999999999998
 50
271.0115623285797
 51
0.0000000000000000
 71
0
  1
LOOP
  0
LINE
  8
11
 10
536.5552427367181
 20
491.8965987363328
 11
572.3883726195306
 21
391.7990760007371
  0
POINT
  8
2
 10
536.5552427367181
 20
491.8965987363328
  0
POINT
  8
2
 10
572.3883726195306
 20
391.7990760007371
  0
TEXT
  8
8
 10
469.7494413451165
 20
301.7311171689499
 40
12.50000000000000
 50
0.0000000000000000
 51
0.0000000000000000
 71
0
  1
SLIT - 11 CM
  0
LINE
  8
6
 10
-1.964692871192035
 20
301.7310408750046
 11
564.9359216510279
 21
301.7310969255449
  0
ENDBLK
  0
BLOCK
  8
1
  2
2
 70
64
 10
0.0
 20
0.0
  0
LINE
  8
7
 10
942.5622024630387
 20
20.00034563675570
 11
976.5037811229081
 21
20.00002194895927
  0
TEXT
  8
1
 10
982.0720204432946
 20
-2.538844857463578
 40
5.000000000000000
 50
135.0000000000000
 51
0.0000000000000000
 71
0
  1
Size: S
  0
TEXT
  8
1
 10
985.6075543492274
 20
2.057349220248981
 40
5.000000000000000
 50
135.0000000000000
 51
0.0000000000000000
 71
0
  1
Piece Name: NK PIPING
  0
TEXT
  8
1
 10
989.1430882551601
 20
6.653543297961539
 40
5.000000000000000
 50
135.0000000000000
 51
0.0000000000000000
 71
0
  1
Category: CUT - 1
  0
TEXT
  8
1
 10
992.6786221610928
 20
11.24973737567410
 40
5.000000000000000
 50
135.0000000000000
 51
0.0000000000000000
 71
0
  1
Annotation: BROWNIE- BRIJESH
  0
TEXT
  8
1
 10
985.6075543492274
 20
2.057349220248981
 40
5.000000000000000
 50
135.0000000000000
 51
0.0000000000000000
 71
0
  1
Material: SHL
  0
TEXT
  8
1
 10
989.1430882551601
 20
6.653543297961539
 40
5.000000000000000
 50
135.0000000000000
 51
0.0000000000000000
 71
0
  1
Quantity: 1
  0
POLYLINE
  8
1
 66
1
 70
0
  0
VERTEX
  8
1
 10
697.9039952596287
 20
253.3454755323842
  0
VERTEX
  8
1
 10
726.1877270274297
 20
281.6301513895920
  0
VERTEX
  8
1
 10
1221.162635701911
 20
-213.3449191287879
  0
VERTEX
  8
1
 10
1192.877878922755
 20
-241.6294061681141
  0
VERTEX
  8
1
 10
697.9039952596287
 20
253.3454755323842
  0
SEQEND
  0
POINT
  8
2
 10
697.9039952596287
 20
253.3454755323842
  0
POINT
  8
2
 10
726.1877270274297
 20
281.6301513895920
  0
POINT
  8
2
 10
1221.162635701911
 20
-213.3449191287879
  0
POINT
  8
2
 10
1192.877878922755
 20
-241.6294061681141
  0
ENDBLK
  0
BLOCK
  8
1
  2
3
 70
64
 10
0.0
 20
0.0
  0
LINE
  8
7
 10
1348.488751930864
 20
72.16643342817761
 11
1412.089201570905
 21
72.16643342817790
  0
TEXT
  8
1
 10
1349.913976816451
 20
73.66643210044428
 40
5.000000000000000
 50
0.0000000000000000
 51
0.0000000000000000
 71
0
  1
Size: S
  0
TEXT
  8
1
 10
1349.913977035008
 20
67.16643210044428
 40
5.000000000000000
 50
0.0000000000000000
 51
0.0000000000000000
 71
0
  1
Piece Name: FRT AER TOP YOKE
  0
TEXT
  8
1
 10
1349.913977253566
 20
60.66643210044429
 40
5.000000000000000
 50
0.0000000000000000
 51
0.0000000000000000
 71
0
  1
Category: CUT-2
  0
TEXT
  8
1
 10
1349.913977472122
 20
54.16643210044430
 40
5.000000000000000
 50
0.0000000000000000
 51
0.0000000000000000
 71
0
  1
Annotation: BROWNIE- BRIJESH
  0
TEXT
  8
1
 10
1349.913977035008
 20
67.16643210044428
 40
5.000000000000000
 50
0.0000000000000000
 51
0.0000000000000000
 71
0
  1
Material: SHL
  0
TEXT
  8
1
 10
1349.913977253566
 20
60.66643210044429
 40
5.000000000000000
 50
0.0000000000000000
 51
0.0000000000000000
 71
0
  1
Quantity: 2
  0
POLYLINE
  8
1
 66
1
 70
0
  0
VERTEX
  8
1
 10
1314.758095631877
 20
4.774946439549836
  0
VERTEX
  8
1
 10
1314.762704345767
 20
60.47657663781465
  0
VERTEX
  8
1
 10
1314.767474128524
 20
118.2371600192046
  0
VERTEX
  8
1
 10
1375.176924659530
 20
126.0993083041167
 70
8
  0
VERTEX
  8
1
 10
1422.231158210555
 20
138.4370501559233
  0
VERTEX
  8
1
 10
1457.970092227350
 20
41.27841642369532
  0
VERTEX
  8
1
 10
1314.758095631877
 20
4.774946439549836
  0
SEQEND
  0
POLYLINE
  8
14
 66
1
 70
0
  0
VERTEX
  8
14
 10
1327.267092658797
 20
20.86304502897022
  0
VERTEX
  8
14
 10
1327.289166431331
 20
60.47496255150335
 70
8
  0
VERTEX
  8
14
 10
1327.271698932551
 20
106.9694884609272
  0
VERTEX
  8
14
 10
1377.716959907332
 20
113.8601000826812
 70
8
  0
VERTEX
  8
14
 10
1414.417860546080
 20
123.4698218273860
  0
VERTEX
  8
14
 10
1441.454676582137
 20
49.96846037320850
  0
VERTEX
  8
14
 10
1327.267092658797
 20
20.86304502897022
  0
SEQEND
  0
POINT
  8
2
 10
1327.267092658797
 20
20.86304502897022
  0
POINT
  8
2
 10
1327.289166431331
 20
60.47496255150335
  0
POINT
  8
2
 10
1327.271698932551
 20
106.9694884609272
  0
POINT
  8
2
 10
1414.417860546080
 20
123.4698218273860
  0
POINT
  8
2
 10
1441.454676582137
 20
49.96846037320850
  0
POINT
  8
2
 10
1314.758095631877
 20
4.774946439549836
  0
POINT
  8
2
 10
1314.762704345767
 20
60.47657663781465
  0
POINT
  8
2
 10
1314.767474128524
 20
118.2371600192046
  0
POINT
  8
2
 10
1422.231158210555
 20
138.4370501559233
  0
POINT
  8
2
 10
1457.970092227350
 20
41.27841642369532
  0
POINT
  8
3
 10
1375.176924659530
 20
126.0993083041167
  0
POINT
  8
4
 10
1314.762704345767
 20
60.47657663781465
 30
6.350097678707479
 50
-0.0047360063065684
  0
POINT
  8
4
 10
1327.289166431331
 20
60.47496255150335
 30
6.350097711706642
 50
-0.0073376574545154
  0
ENDBLK
  0
BLOCK
  8
1
  2
4
 70
64
 10
0.0
 20
0.0
  0
LINE
  8
7
 10
1553.024568176226
 20
129.2397205513304
 11
1672.926839884660
 21
129.2397205513304
  0
TEXT
  8
1
 10
1574.638293182721
 20
126.2982022131001
 40
6.399999856948852
 50
7.160768383632204
 51
0.0000000000000000
 71
0
  1
Size: S
  0
TEXT
  8
1
 10
1575.436078013457
 20
118.0430960096391
 40
6.399999856948852
 50
7.160768383632204
 51
0.0000000000000000
 71
0
  1
Piece Name: FRT WAIST YOKE
  0
TEXT
  8
1
 10
1576.233862844193
 20
109.7879898061781
 40
6.399999856948852
 50
7.160768383632204
 51
0.0000000000000000
 71
0
  1
Category: CUT-2
  0
TEXT
  8
1
 10
1577.031647674929
 20
101.5328836027171
 40
6.399999856948852
 50
7.160768383632204
 51
0.0000000000000000
 71
0
  1
Annotation: BROWNIE- BRIJESH
  0
TEXT
  8
1
 10
1575.436078013457
 20
118.0430960096391
 40
6.399999856948852
 50
7.160768383632204
 51
0.0000000000000000
 71
0
  1
Material: SHL
  0
TEXT
  8
1
 10
1576.233862844193
 20
109.7879898061781
 40
6.399999856948852
 50
7.160768383632204
 51
0.0000000000000000
 71
0
  1
Quantity: 2
  0
POLYLINE
  8
1
 66
1
 70
0
  0
VERTEX
  8
1
 10
1727.712621439998
 20
38.98833316125703
  0
VERTEX
  8
1
 10
1495.207796973320
 20
-26.13685062003668
  0
VERTEX
  8
1
 10
1499.596000107026
 20
56.36320571226634
 70
8
  0
VERTEX
  8
1
 10
1500.627188150915
 20
120.8928703992977
 70
8
  0
VERTEX
  8
1
 10
1493.361427106947
 20
243.1954929670594
  0
VERTEX
  8
1
 10
1620.892577409361
 20
248.9624133348163
  0
VERTEX
  8
1
 10
1624.831159732367
 20
225.8503772802450
 70
8
  0
VERTEX
  8
1
 10
1634.748679010370
 20
204.0757336469089
 70
8
  0
VERTEX
  8
1
 10
1648.696123268525
 20
193.5375383922948
 70
8
  0
VERTEX
  8
1
 10
1665.352455370658
 20
189.4269589701591
 70
8
  0
VERTEX
  8
1
 10
1687.980502932513
 20
189.9114868382165
 70
8
  0
VERTEX
  8
1
 10
1714.074847201521
 20
193.1866800873013
  0
VERTEX
  8
1
 10
1718.165243934734
 20
172.8331866402101
 70
8
  0
VERTEX
  8
1
 10
1725.252872794801
 20
131.2139745759002
 70
8
  0
VERTEX
  8
1
 10
1727.448356688985
 20
91.06207801640068
 70
8
  0
VERTEX
  8
1
 10
1727.957402940709
 20
74.95977189879454
 70
8
  0
VERTEX
  8
1
 10
1727.931725456014
 20
63.43321680947270
 70
8
  0
VERTEX
  8
1
 10
1727.712621439998
 20
38.98833316125703
  0
SEQEND
  0
POLYLINE
  8
14
 66
1
 70
0
  0
VERTEX
  8
14
 10
1715.297322369341
 20
48.49186838553976
  0
VERTEX
  8
14
 10
1508.615476678409
 20
-9.400203448489748
  0
VERTEX
  8
14
 10
1513.125746484484
 20
121.0813241087136
 70
8
  0
VERTEX
  8
14
 10
1506.827256244595
 20
231.2916751965328
  0
VERTEX
  8
14
 10
1610.432885741918
 20
235.9766619410219
  0
VERTEX
  8
14
 10
1612.632154409331
 20
223.1240335418211
 70
8
  0
VERTEX
  8
14
 10
1625.124735106842
 20
196.0989408350402
 70
8
  0
VERTEX
  8
14
 10
1643.568545350119
 20
182.1376398864612
 70
8
  0
VERTEX
  8
14
 10
1664.153284400790
 20
176.9846334057472
 70
8
  0
VERTEX
  8
14
 10
1689.276287024222
 20
177.4788330654693
 70
8
  0
VERTEX
  8
14
 10
1704.108004104321
 20
179.3388648147769
  0
VERTEX
  8
14
 10
1705.923006045496
 20
170.3076655212635
 70
8
  0
VERTEX
  8
14
 10
1707.893646355552
 20
160.7095316639108
 70
8
  0
VERTEX
  8
14
 10
1709.674253564579
 20
150.8692547556757
 70
8
  0
VERTEX
  8
14
 10
1711.518139098301
 20
139.7267028077592
 70
8
  0
VERTEX
  8
14
 10
1712.831668268915
 20
129.8132316310478
 70
8
  0
VERTEX
  8
14
 10
1713.985267492601
 20
116.0867807981859
 70
8
  0
VERTEX
  8
14
 10
1714.702703002350
 20
96.11159524386068
 70
8
  0
VERTEX
  8
14
 10
1714.961850757274
 20
90.48110377291465
 70
8
  0
VERTEX
  8
14
 10
1715.227771327532
 20
84.82759278499188
 70
8
  0
VERTEX
  8
14
 10
1715.457051287099
 20
74.83024762445339
 70
8
  0
VERTEX
  8
14
 10
1715.432103808121
 20
63.53160404155460
 70
8
  0
VERTEX
  8
14
 10
1715.297322369341
 20
48.49186838553976
  0
SEQEND
  0
POINT
  8
2
 10
1715.297322369341
 20
48.49186838553976
  0
POINT
  8
2
 10
1508.615476678409
 20
-9.400203448489748
  0
POINT
  8
2
 10
1513.125746484484
 20
121.0813241087136
  0
POINT
  8
2
 10
1506.827256244595
 20
231.2916751965328
  0
POINT
  8
2
 10
1610.432885741918
 20
235.9766619410219
  0
POINT
  8
2
 10
1704.108004104321
 20
179.3388648147769
  0
POINT
  8
2
 10
1705.923006045496
 20
170.3076655212635
  0
POINT
  8
2
 10
1715.432103808121
 20
63.53160404155460
  0
POINT
  8
2
 10
1727.712621439998
 20
38.98833316125703
  0
POINT
  8
2
 10
1495.207796973320
 20
-26.13685062003668
  0
POINT
  8
2
 10
1500.627188150915
 20
120.8928703992977
  0
POINT
  8
2
 10
1493.361427106947
 20
243.1954929670594
  0
POINT
  8
2
 10
1620.892577409361
 20
248.9624133348163
  0
POINT
  8
2
 10
1714.074847201521
 20
193.1866800873013
  0
POINT
  8
2
 10
1718.165243934734
 20
172.8331866402101
  0
POINT
  8
2
 10
1727.931725456014
 20
63.43321680947270
  0
POINT
  8
3
 10
1499.596000107026
 20
56.36320571226634
  0
POINT
  8
3
 10
1500.627188150915
 20
120.8928703992977
  0
POINT
  8
3
 10
1624.831159732367
 20
225.8503772802450
  0
POINT
  8
3
 10
1634.748679010370
 20
204.0757336469089
  0
POINT
  8
3
 10
1648.696123268525
 20
193.5375383922948
  0
POINT
  8
3
 10
1665.352455370658
 20
189.4269589701591
  0
POINT
  8
3
 10
1687.980502932513
 20
189.9114868382165
  0
POINT
  8
3
 10
1718.165243934734
 20
172.8331866402101
  0
POINT
  8
3
 10
1725.252872794801
 20
131.2139745759002
  0
POINT
  8
3
 10
1727.448356688985
 20
91.06207801640068
  0
POINT
  8
3
 10
1727.957402940709
 20
74.95977189879454
  0
POINT
  8
3
 10
1727.931725456014
 20
63.43321680947270
  0
POINT
  8
4
 10
1500.627188150915
 20
120.8928703992977
 30
6.350195238455555
 50
0.8654404325098628
  0
POINT
  8
4
 10
1718.165243934734
 20
172.8331866402101
 30
6.349805571190235
 50
-168.3437872084225
  0
POINT
  8
4
 10
1727.931725456014
 20
63.43321680947270
 30
6.350732118633048
 50
179.5488686845240
  0
POINT
  8
4
 10
1513.125746484484
 20
121.0813241087136
 30
6.350195238455768
 50
0.8654908323677933
  0
POINT
  8
4
 10
1705.923006045496
 20
170.3076655212635
 30
6.349729277402167
 50
-168.3438105066614
  0
POINT
  8
4
 10
1715.432103808121
 20
63.53160404155460
 30
6.350716268249030
 50
179.5491537916091
  0
TEXT
  8
8
 10
1690.143368097509
 20
144.6272470707854
 40
7.499999999999999
 50
287.7690443064817
 51
0.0000000000000000
 71
0
  1
GATHER- 5.5 CM
  0
POLYLINE
  8
8
 66
1
 70
0
  0
VERTEX
  8
8
 10
1702.580637694293
 20
165.2512274990592
  0
VERTEX
  8
8
 10
1704.696418191063
 20
164.3540936807872
 70
8
  0
VERTEX
  8
8
 10
1705.662485356390
 20
163.3047542012253
 70
8
  0
VERTEX
  8
8
 10
1705.002487597505
 20
162.0404442458964
 70
8
  0
VERTEX
  8
8
 10
1703.192701755465
 20
160.6239133666507
 70
8
  0
VERTEX
  8
8
 10
1701.382885388172
 20
159.2075319908273
 70
8
  0
VERTEX
  8
8
 10
1700.722887629288
 20
157.9432220354984
 70
8
  0
VERTEX
  8
8
 10
1701.688880042903
 20
156.8938672933095
 70
8
  0
VERTEX
  8
8
 10
1703.804660539673
 20
155.9967334750375
 70
8
  0
VERTEX
  8
8
 10
1705.920546313408
 20
155.0994654159703
 70
8
  0
VERTEX
  8
8
 10
1706.886553989651
 20
154.0500359220702
 70
8
  0
VERTEX
  8
8
 10
1706.226481479055
 20
152.7857107041146
 70
8
  0
VERTEX
  8
8
 10
1704.416739863473
 20
151.3693445909179
 70
8
  0
VERTEX
  8
8
 10
1702.606954021433
 20
149.9528137116722
 70
8
  0
VERTEX
  8
8
 10
1701.946881510837
 20
148.6884884937165
 70
8
  0
VERTEX
  8
8
 10
1702.912948676164
 20
147.6391490141546
 70
8
  0
VERTEX
  8
8
 10
1705.028729172934
 20
146.7420151958825
 70
8
  0
VERTEX
  8
8
 10
1707.144540194958
 20
145.8447318741884
 70
8
  0
VERTEX
  8
8
 10
1708.110532608574
 20
144.7953771319995
 70
8
  0
VERTEX
  8
8
 10
1707.450534849689
 20
143.5310671766706
 70
8
  0
VERTEX
  8
8
 10
1705.640718482396
 20
142.1146858008471
 70
8
  0
VERTEX
  8
8
 10
1703.830932640356
 20
140.6981549216015
 70
8
  0
VERTEX
  8
8
 10
1703.170934881471
 20
139.4338449662726
 70
8
  0
VERTEX
  8
8
 10
1704.137017309425
 20
138.3844307349996
 70
8
  0
VERTEX
  8
8
 10
1706.252797806195
 20
137.4872969167276
 70
8
  0
VERTEX
  8
8
 10
1708.368608828219
 20
136.5900135950334
 70
8
  0
VERTEX
  8
8
 10
1709.334570716580
 20
135.5408083562666
 70
8
  0
VERTEX
  8
8
 10
1708.674603482950
 20
134.2763488975157
 70
8
  0
VERTEX
  8
8
 10
1706.864787115657
 20
132.8599675216921
 70
8
  0
VERTEX
  8
8
 10
1705.055001273617
 20
131.4434366424464
 70
8
  0
VERTEX
  8
8
 10
1704.394928763021
 20
130.1791114244907
 70
8
  0
VERTEX
  8
8
 10
1705.360995928348
 20
129.1297719449288
 70
8
  0
VERTEX
  8
8
 10
1707.476776425118
 20
128.2326381266567
 70
8
  0
VERTEX
  8
8
 10
1709.592587447142
 20
127.3353548049626
 70
8
  0
VERTEX
  8
8
 10
1710.558639349841
 20
126.2860900771118
 70
8
  0
VERTEX
  8
8
 10
1709.898672116211
 20
125.0216306183607
 70
8
  0
VERTEX
  8
8
 10
1708.092770395377
 20
121.1052399010652
 70
8
  0
VERTEX
  8
8
 10
1706.282879276373
 20
119.6888432626147
 70
8
  0
VERTEX
  8
8
 10
1705.622912042742
 20
118.4243838038637
 70
8
  0
VERTEX
  8
8
 10
1706.588948682814
 20
117.3751938277239
 70
8
  0
VERTEX
  8
8
 10
1708.704684953127
 20
116.4778952434028
 70
8
  0
VERTEX
  8
8
 10
1710.820495975151
 20
115.5806119217087
 70
8
  0
VERTEX
  8
8
 10
1711.802101186723
 20
104.5314440687650
 70
8
  0
VERTEX
  8
8
 10
1711.142059201381
 20
103.2669693473871
 70
8
  0
VERTEX
  8
8
 10
1709.332317585799
 20
101.8506032341905
 70
8
  0
VERTEX
  8
8
 10
1707.522426466794
 20
100.4342065957400
 70
8
  0
VERTEX
  8
8
 10
1706.862459233164
 20
99.16974713698906
 70
8
  0
VERTEX
  8
8
 10
1707.828511135863
 20
98.12048240913811
 70
8
  0
VERTEX
  8
8
 10
1709.944322157887
 20
97.22319908744396
 70
8
  0
VERTEX
  8
8
 10
1712.060133179911
 20
96.32591576574981
 70
8
  0
VERTEX
  8
8
 10
1713.026169819984
 20
95.27672578961003
 70
8
  0
VERTEX
  8
8
 10
1712.366127834642
 20
94.01225106823205
 70
8
  0
VERTEX
  8
8
 10
1710.556311467349
 20
92.59586969240857
 70
8
  0
VERTEX
  8
8
 10
1708.746569851766
 20
91.17950357921203
 70
8
  0
VERTEX
  8
8
 10
1708.086527866424
 20
89.91502885783405
 70
8
  0
VERTEX
  8
8
 10
1709.052489754786
 20
88.86582361906733
 70
8
  0
VERTEX
  8
8
 10
1711.168300776810
 20
87.96854029737318
 70
8
  0
VERTEX
  8
8
 10
1713.284081273580
 20
87.07140647910109
 70
8
  0
VERTEX
  8
8
 10
1714.250163701533
 20
86.02199224782808
 70
8
  0
VERTEX
  8
8
 10
1713.590165942649
 20
84.75768229249923
 70
8
  0
VERTEX
  8
8
 10
1711.780380100609
 20
83.34115141325356
 70
8
  0
VERTEX
  8
8
 10
1709.970563733316
 20
81.92477003743008
 70
8
  0
VERTEX
  8
8
 10
1709.310521747974
 20
80.66029531605210
 70
8
  0
VERTEX
  8
8
 10
1710.276633139758
 20
79.61112060253925
 70
8
  0
VERTEX
  8
8
 10
1712.392444161782
 20
78.71383728084510
 70
8
  0
VERTEX
  8
8
 10
1714.508224658552
 20
77.81670346257315
 70
8
  0
VERTEX
  8
8
 10
1715.474217072167
 20
76.76734872038423
 70
8
  0
VERTEX
  8
8
 10
1714.814144561572
 20
75.50302350242845
 70
8
  0
VERTEX
  8
8
 10
1713.004358719532
 20
74.08649262318278
 70
8
  0
VERTEX
  8
8
 10
1711.194632366577
 20
72.67005175827507
 70
8
  0
VERTEX
  8
8
 10
1710.534544593354
 20
71.40580129203045
 70
8
  0
VERTEX
  8
8
 10
1711.500627021308
 20
70.35638706075744
 70
8
  0
VERTEX
  8
8
 10
1713.616438043332
 20
69.45910373906315
 70
8
  0
VERTEX
  8
8
 10
1715.732218540102
 20
68.56196992079120
 70
8
  0
VERTEX
  8
8
 10
1716.698210953717
 20
67.51261517860229
 70
8
  0
VERTEX
  8
8
 10
1716.038287946544
 20
66.24832048590051
 70
8
  0
VERTEX
  8
8
 10
1714.228427352793
 20
64.83177434402776
  0
SEQEND
  0
POINT
  8
2
 10
1702.580637694293
 20
165.2512274990592
  0
POINT
  8
2
 10
1705.662485356390
 20
163.3047542012253
  0
POINT
  8
2
 10
1700.722887629288
 20
157.9432220354984
  0
POINT
  8
2
 10
1706.886553989651
 20
154.0500359220702
  0
POINT
  8
2
 10
1701.946881510837
 20
148.6884884937165
  0
POINT
  8
2
 10
1708.110532608574
 20
144.7953771319995
  0
POINT
  8
2
 10
1703.170934881471
 20
139.4338449662726
  0
POINT
  8
2
 10
1709.334570716580
 20
135.5408083562666
  0
POINT
  8
2
 10
1704.394928763021
 20
130.1791114244907
  0
POINT
  8
2
 10
1710.558639349841
 20
126.2860900771118
  0
POINT
  8
2
 10
1705.622912042742
 20
118.4243838038637
  0
POINT
  8
2
 10
1711.802101186723
 20
104.5314440687650
  0
POINT
  8
2
 10
1706.862459233164
 20
99.16974713698906
  0
POINT
  8
2
 10
1713.026169819984
 20
95.27672578961003
  0
POINT
  8
2
 10
1708.086527866424
 20
89.91502885783405
  0
POINT
  8
2
 10
1714.250163701533
 20
86.02199224782808
  0
POINT
  8
2
 10
1709.310521747974
 20
80.66029531605210
  0
POINT
  8
2
 10
1715.474217072167
 20
76.76734872038423
  0
POINT
  8
2
 10
1710.534544593354
 20
71.40580129203045
  0
POINT
  8
2
 10
1716.698210953717
 20
67.51261517860229
  0
POINT
  8
2
 10
1714.228427352793
 20
64.83177434402776
  0
POINT
  8
3
 10
1704.696418191063
 20
164.3540936807872
  0
POINT
  8
3
 10
1705.662485356390
 20
163.3047542012253
  0
POINT
  8
3
 10
1705.002487597505
 20
162.0404442458964
  0
POINT
  8
3
 10
1703.192701755465
 20
160.6239133666507
  0
POINT
  8
3
 10
1701.382885388172
 20
159.2075319908273
  0
POINT
  8
3
 10
1700.722887629288
 20
157.9432220354984
  0
POINT
  8
3
 10
1701.688880042903
 20
156.8938672933095
  0
POINT
  8
3
 10
1703.804660539673
 20
155.9967334750375
  0
POINT
  8
3
 10
1705.920546313408
 20
155.0994654159703
  0
POINT
  8
3
 10
1706.886553989651
 20
154.0500359220702
  0
POINT
  8
3
 10
1706.226481479055
 20
152.7857107041146
  0
POINT
  8
3
 10
1704.416739863473
 20
151.3693445909179
  0
POINT
  8
3
 10
1702.606954021433
 20
149.9528137116722
  0
POINT
  8
3
 10
1701.946881510837
 20
148.6884884937165
  0
POINT
  8
3
 10
1702.912948676164
 20
147.6391490141546
  0
POINT
  8
3
 10
1705.028729172934
 20
146.7420151958825
  0
POINT
  8
3
 10
1707.144540194958
 20
145.8447318741884
  0
POINT
  8
3
 10
1708.110532608574
 20
144.7953771319995
  0
POINT
  8
3
 10
1707.450534849689
 20
143.5310671766706
  0
POINT
  8
3
 10
1705.640718482396
 20
142.1146858008471
  0
POINT
  8
3
 10
1703.830932640356
 20
140.6981549216015
  0
POINT
  8
3
 10
1703.170934881471
 20
139.4338449662726
  0
POINT
  8
3
 10
1704.137017309425
 20
138.3844307349996
  0
POINT
  8
3
 10
1706.252797806195
 20
137.4872969167276
  0
POINT
  8
3
 10
1708.368608828219
 20
136.5900135950334
  0
POINT
  8
3
 10
1709.334570716580
 20
135.5408083562666
  0
POINT
  8
3
 10
1708.674603482950
 20
134.2763488975157
  0
POINT
  8
3
 10
1706.864787115657
 20
132.8599675216921
  0
POINT
  8
3
 10
1705.055001273617
 20
131.4434366424464
  0
POINT
  8
3
 10
1704.394928763021
 20
130.1791114244907
  0
POINT
  8
3
 10
1705.360995928348
 20
129.1297719449288
  0
POINT
  8
3
 10
1707.476776425118
 20
128.2326381266567
  0
POINT
  8
3
 10
1709.592587447142
 20
127.3353548049626
  0
POINT
  8
3
 10
1710.558639349841
 20
126.2860900771118
  0
POINT
  8
3
 10
1709.898672116211
 20
125.0216306183607
  0
POINT
  8
3
 10
1708.092770395377
 20
121.1052399010652
  0
POINT
  8
3
 10
1706.282879276373
 20
119.6888432626147
  0
POINT
  8
3
 10
1705.622912042742
 20
118.4243838038637
  0
POINT
  8
3
 10
1706.588948682814
 20
117.3751938277239
  0
POINT
  8
3
 10
1708.704684953127
 20
116.4778952434028
  0
POINT
  8
3
 10
1710.820495975151
 20
115.5806119217087
  0
POINT
  8
3
 10
1711.802101186723
 20
104.5314440687650
  0
POINT
  8
3
 10
1711.142059201381
 20
103.2669693473871
  0
POINT
  8
3
 10
1709.332317585799
 20
101.8506032341905
  0
POINT
  8
3
 10
1707.522426466794
 20
100.4342065957400
  0
POINT
  8
3
 10
1706.862459233164
 20
99.16974713698906
  0
POINT
  8
3
 10
1707.828511135863
 20
98.12048240913811
  0
POINT
  8
3
 10
1709.944322157887
 20
97.22319908744396
  0
POINT
  8
3
 10
1712.060133179911
 20
96.32591576574981
  0
POINT
  8
3
 10
1713.026169819984
 20
95.27672578961003
  0
POINT
  8
3
 10
1712.366127834642
 20
94.01225106823205
  0
POINT
  8
3
 10
1710.556311467349
 20
92.59586969240857
  0
POINT
  8
3
 10
1708.746569851766
 20
91.17950357921203
  0
POINT
  8
3
 10
1708.086527866424
 20
89.91502885783405
  0
POINT
  8
3
 10
1709.052489754786
 20
88.86582361906733
  0
POINT
  8
3
 10
1711.168300776810
 20
87.96854029737318
  0
POINT
  8
3
 10
1713.284081273580
 20
87.07140647910109
  0
POINT
  8
3
 10
1714.250163701533
 20
86.02199224782808
  0
POINT
  8
3
 10
1713.590165942649
 20
84.75768229249923
  0
POINT
  8
3
 10
1711.780380100609
 20
83.34115141325356
  0
POINT
  8
3
 10
1709.970563733316
 20
81.92477003743008
  0
POINT
  8
3
 10
1709.310521747974
 20
80.66029531605210
  0
POINT
  8
3
 10
1710.276633139758
 20
79.61112060253925
  0
POINT
  8
3
 10
1712.392444161782
 20
78.71383728084510
  0
POINT
  8
3
 10
1714.508224658552
 20
77.81670346257315
  0
POINT
  8
3
 10
1715.474217072167
 20
76.76734872038423
  0
POINT
  8
3
 10
1714.814144561572
 20
75.50302350242845
  0
POINT
  8
3
 10
1713.004358719532
 20
74.08649262318278
  0
POINT
  8
3
 10
1711.194632366577
 20
72.67005175827507
  0
POINT
  8
3
 10
1710.534544593354
 20
71.40580129203045
  0
POINT
  8
3
 10
1711.500627021308
 20
70.35638706075744
  0
POINT
  8
3
 10
1713.616438043332
 20
69.45910373906315
  0
POINT
  8
3
 10
1715.732218540102
 20
68.56196992079120
  0
POINT
  8
3
 10
1716.698210953717
 20
67.51261517860229
  0
POINT
  8
3
 10
1716.038287946544
 20
66.24832048590051
  0
ENDBLK
  0
BLOCK
  8
1
  2
5
 70
64
 10
0.0
 20
0.0
  0
LINE
  8
7
 10
1789.439483711022
 20
12.83898460986180
 11
1804.405390458040
 21
12.83898460986194
  0
TEXT
  8
1
 10
1778.697436399675
 20
13.73898384898461
 40
3.000000119209290
 50
0.0000000000000000
 51
0.0000000000000000
 71
0
  1
Size: S
  0
TEXT
  8
1
 10
1778.697436530809
 20
9.838983694012537
 40
3.000000119209290
 50
0.0000000000000000
 51
0.0000000000000000
 71
0
  1
Piece Name: FRT  AER LACE
  0
TEXT
  8
1
 10
1778.697436661943
 20
5.938983539040463
 40
3.000000119209290
 50
0.0000000000000000
 51
0.0000000000000000
 71
0
  1
Category: CUT-2
  0
TEXT
  8
1
 10
1778.697436793077
 20
2.038983384068391
 40
3.000000119209290
 50
0.0000000000000000
 51
0.0000000000000000
 71
0
  1
Annotation: BROWNIE- BRIJESH
  0
TEXT
  8
1
 10
1778.697436530809
 20
9.838983694012537
 40
3.000000119209290
 50
0.0000000000000000
 51
0.0000000000000000
 71
0
  1
Material: LACE
  0
TEXT
  8
1
 10
1778.697436661943
 20
5.938983539040463
 40
3.000000119209290
 50
0.0000000000000000
 51
0.0000000000000000
 71
0
  1
Quantity: 2
  0
POLYLINE
  8
1
 66
1
 70
0
  0
VERTEX
  8
1
 10
1809.394529337192
 20
-39.63738899677992
  0
VERTEX
  8
1
 10
1784.111726755405
 20
-46.65925484150648
  0
VERTEX
  8
1
 10
1784.267290109897
 20
-33.64291172474623
  0
VERTEX
  8
1
 10
1784.424934858585
 20
-18.60338669270277
 70
8
  0
VERTEX
  8
1
 10
1784.459788570469
 20
48.86343427763435
 70
8
  0
VERTEX
  8
1
 10
1784.418983632827
 20
58.07975042611361
  0
VERTEX
  8
1
 10
1784.470550293232
 20
70.60061950236559
  0
VERTEX
  8
1
 10
1809.393084520603
 20
71.94205742329359
  0
VERTEX
  8
1
 10
1809.393299665781
 20
59.42397669924063
  0
VERTEX
  8
1
 10
1809.393818849826
 20
19.45279616862536
  0
VERTEX
  8
1
 10
1809.394416895243
 20
-26.66428347455707
  0
VERTEX
  8
1
 10
1809.394529337192
 20
-39.63738899677992
  0
SEQEND
  0
POLYLINE
  8
14
 66
1
 70
0
  0
VERTEX
  8
14
 10
1809.394416895243
 20
-26.66428347455707
  0
VERTEX
  8
14
 10
1784.267290109897
 20
-33.64290695637465
  0
VERTEX
  8
14
 10
1784.424937242771
 20
-18.60338669270277
 70
8
  0
VERTEX
  8
14
 10
1784.381046766544
 20
48.86824864894152
 70
8
  0
VERTEX
  8
14
 10
1784.418983930851
 20
58.07975072413683
  0
VERTEX
  8
14
 10
1809.393301481510
 20
59.42397613078356
  0
VERTEX
  8
14
 10
1809.393940058085
 20
19.45279339922223
 70
8
  0
VERTEX
  8
14
 10
1809.394416895243
 20
-26.66428347455707
  0
SEQEND
  0
POINT
  8
2
 10
1809.394416895243
 20
-26.66428347455707
  0
POINT
  8
2
 10
1784.267290109897
 20
-33.64290695637465
  0
POINT
  8
2
 10
1784.424937242771
 20
-18.60338669270277
  0
POINT
  8
2
 10
1784.381046766544
 20
48.86824864894152
  0
POINT
  8
2
 10
1784.418983930851
 20
58.07975072413683
  0
POINT
  8
2
 10
1809.393301481510
 20
59.42397613078356
  0
POINT
  8
2
 10
1809.393940058085
 20
19.45279339922223
  0
POINT
  8
2
 10
1809.394529337192
 20
-39.63738899677992
  0
POINT
  8
2
 10
1784.111726755405
 20
-46.65925484150648
  0
POINT
  8
2
 10
1784.267290109897
 20
-33.64291172474623
  0
POINT
  8
2
 10
1784.424934858585
 20
-18.60338669270277
  0
POINT
  8
2
 10
1784.459788570469
 20
48.86343427763435
  0
POINT
  8
2
 10
1784.418983632827
 20
58.07975042611361
  0
POINT
  8
2
 10
1784.470550293232
 20
70.60061950236559
  0
POINT
  8
2
 10
1809.393084520603
 20
71.94205742329359
  0
POINT
  8
2
 10
1809.393299665781
 20
59.42397669924063
  0
POINT
  8
2
 10
1809.393818849826
 20
19.45279616862536
  0
POINT
  8
2
 10
1809.394416895243
 20
-26.66428347455707
  0
POINT
  8
3
 10
1784.424934858585
 20
-18.60338669270277
  0
POINT
  8
3
 10
1784.459788570469
 20
48.86343427763435
  0
POINT
  8
4
 10
1784.424934858585
 20
-18.60338669270277
 30
6.350103503841247
 50
-0.5013462125495125
  0
POINT
  8
4
 10
1784.459788570469
 20
48.86343427763435
 30
6.350118147560116
 50
-0.1577556978851833
  0
POINT
  8
4
 10
1809.393818849826
 20
19.45279616862536
 30
6.350097656767471
 50
-179.9992563884280
  0
POINT
  8
4
 10
1784.424937242771
 20
-18.60338669270277
 30
6.350104151729504
 50
-0.4320829127006587
  0
POINT
  8
4
 10
1784.381046766544
 20
48.86824864894152
 30
6.350116955471830
 50
-0.1577498618230759
  0
POINT
  8
4
 10
1809.393940058085
 20
19.45279339922223
 30
6.350097656829988
 50
-179.9992345855138
  0
ENDBLK
  0
BLOCK
  8
1
  2
6
 70
64
 10
0.0
 20
0.0
  0
LINE
  8
7
 10
1922.828974151655
 20
194.5036461898918
 11
1985.294418147240
 21
194.5036461898918
  0
TEXT
  8
1
 10
1923.686694353590
 20
196.0036825564417
 40
5.000000000000000
 50
0.0000000000000000
 51
0.0000000000000000
 71
0
  1
Size: S
  0
TEXT
  8
1
 10
1923.686688367327
 20
189.5036825564463
 40
5.000000000000000
 50
0.0000000000000000
 51
0.0000000000000000
 71
0
  1
Piece Name: FRT FOKE LACE
  0
TEXT
  8
1
 10
1923.686682381063
 20
183.0036825564510
 40
5.000000000000000
 50
0.0000000000000000
 51
0.0000000000000000
 71
0
  1
Category: CUT- 1
  0
TEXT
  8
1
 10
1923.686676394800
 20
176.5036825564556
 40
5.000000000000000
 50
0.0000000000000000
 51
0.0000000000000000
 71
0
  1
Annotation: BROWNIE- BRIJESH
  0
TEXT
  8
1
 10
1923.686688367327
 20
189.5036825564463
 40
5.000000000000000
 50
0.0000000000000000
 51
0.0000000000000000
 71
0
  1
Material: LACE
  0
TEXT
  8
1
 10
1923.686682381063
 20
183.0036825564510
 40
5.000000000000000
 50
0.0000000000000000
 51
0.0000000000000000
 71
0
  1
Quantity: 2
  0
POLYLINE
  8
1
 66
1
 70
0
  0
VERTEX
  8
1
 10
1817.955380955011
 20
143.7977378586440
  0
VERTEX
  8
1
 10
1771.555737997183
 20
131.2939345487291
  0
VERTEX
  8
1
 10
1734.669330444211
 20
131.2908242572738
  0
VERTEX
  8
1
 10
1734.587613985132
 20
147.6089237087935
  0
VERTEX
  8
1
 10
1747.070252409991
 20
151.1053576593861
  0
VERTEX
  8
1
 10
1953.749882098520
 20
209.0051510965948
  0
VERTEX
  8
1
 10
1978.866112763508
 20
216.0229797136516
  0
VERTEX
  8
1
 10
2093.008505516186
 20
245.3057339561075
  0
VERTEX
  8
1
 10
2105.180731275548
 20
248.4285501361443
  0
VERTEX
  8
1
 10
2114.147957647181
 20
224.1671517113497
  0
VERTEX
  8
1
 10
2102.065286967176
 20
220.8019264599547
  0
VERTEX
  8
1
 10
2053.151455100401
 20
207.1787758891682
  0
VERTEX
  8
1
 10
1817.955380955011
 20
143.7977378586440
  0
SEQEND
  0
POLYLINE
  8
14
 66
1
 70
0
  0
VERTEX
  8
14
 10
1817.955419101937
 20
143.7977379179593
  0
VERTEX
  8
14
 10
1747.106877615463
 20
143.7918681697096
  0
VERTEX
  8
14
 10
1747.070214203749
 20
151.1053957469973
  0
VERTEX
  8
14
 10
1947.777337873888
 20
207.3239948862543
  0
VERTEX
  8
14
 10
1953.749882098520
 20
209.0051510965948
  0
VERTEX
  8
14
 10
1978.866112763508
 20
216.0229797136516
  0
VERTEX
  8
14
 10
2093.008505516186
 20
245.3057339561075
  0
VERTEX
  8
14
 10
2102.065286967176
 20
220.8019264599547
  0
VERTEX
  8
14
 10
2053.151461973589
 20
207.1787827837645
  0
VERTEX
  8
14
 10
1817.955419101937
 20
143.7977379179593
  0
SEQEND
  0
POINT
  8
2
 10
1817.955419101937
 20
143.7977379179593
  0
POINT
  8
2
 10
1747.106877615463
 20
143.7918681697096
  0
POINT
  8
2
 10
1747.070214203749
 20
151.1053957469973
  0
POINT
  8
2
 10
1947.777337873888
 20
207.3239948862543
  0
POINT
  8
2
 10
1953.749882098520
 20
209.0051510965948
  0
POINT
  8
2
 10
1978.866112763508
 20
216.0229797136516
  0
POINT
  8
2
 10
2093.008505516186
 20
245.3057339561075
  0
POINT
  8
2
 10
2102.065286967176
 20
220.8019264599547
  0
POINT
  8
2
 10
2053.151461973589
 20
207.1787827837645
  0
POINT
  8
2
 10
1817.955380955011
 20
143.7977378586440
  0
POINT
  8
2
 10
1771.555737997183
 20
131.2939345487291
  0
POINT
  8
2
 10
1734.669330444211
 20
131.2908242572738
  0
POINT
  8
2
 10
1734.587613985132
 20
147.6089237087935
  0
POINT
  8
2
 10
1747.070252409991
 20
151.1053576593861
  0
POINT
  8
2
 10
1953.749882098520
 20
209.0051510965948
  0
POINT
  8
2
 10
1978.866112763508
 20
216.0229797136516
  0
POINT
  8
2
 10
2093.008505516186
 20
245.3057339561075
  0
POINT
  8
2
 10
2105.180731275548
 20
248.4285501361443
  0
POINT
  8
2
 10
2114.147957647181
 20
224.1671517113497
  0
POINT
  8
2
 10
2102.065286967176
 20
220.8019264599547
  0
POINT
  8
2
 10
2053.151455100401
 20
207.1787758891682
  0
POINT
  8
4
 10
2053.151455100401
 20
207.1787758891682
 30
6.350052550888008
 50
105.3225588340692
  0
POINT
  8
4
 10
2053.151461973589
 20
207.1787827837645
 30
6.350052550888047
 50
105.3225578603924
  0
POINT
  8
13
 10
2116.690672736811
 20
224.9541778903013
  0
ENDBLK
  0
BLOCK
  8
1
  2
7
 70
64
 10
0.0
 20
0.0
  0
LINE
  8
7
 10
2004.522834631942
 20
164.1588598222116
 11
2126.502559152495
 21
164.1565642498689
  0
TEXT
  8
1
 10
2026.632697845180
 20
166.0777102936261
 40
6.399999856948853
 50
0.0000000000000000
 51
0.0000000000000000
 71
0
  1
Size: S
  0
TEXT
  8
1
 10
2026.632698124933
 20
157.7577104795926
 40
6.399999856948853
 50
0.0000000000000000
 51
0.0000000000000000
 71
0
  1
Piece Name: C FRT YOKE
  0
TEXT
  8
1
 10
2026.632698404686
 20
149.4377106655591
 40
6.399999856948853
 50
0.0000000000000000
 51
0.0000000000000000
 71
0
  1
Category: CUT  - 1
  0
TEXT
  8
1
 10
2026.632698684439
 20
141.1177108515256
 40
6.399999856948853
 50
0.0000000000000000
 51
0.0000000000000000
 71
0
  1
Annotation: BROWNIE- BRIJESH
  0
TEXT
  8
1
 10
2026.632698124933
 20
157.7577104795926
 40
6.399999856948853
 50
0.0000000000000000
 51
0.0000000000000000
 71
0
  1
Material: SHL
  0
TEXT
  8
1
 10
2026.632698404686
 20
149.4377106655591
 40
6.399999856948853
 50
0.0000000000000000
 51
0.0000000000000000
 71
0
  1
Quantity: 1
  0
POLYLINE
  8
1
 66
1
 70
0
  0
VERTEX
  8
1
 10
1915.581035089894
 20
164.1605589801419
  0
VERTEX
  8
1
 10
2240.656127405568
 20
251.2203619891751
  0
VERTEX
  8
1
 10
2243.889861154639
 20
239.1458681991840
  0
VERTEX
  8
1
 10
2199.497575235768
 20
212.8309748584378
 70
8
  0
VERTEX
  8
1
 10
2195.087394190236
 20
209.6183035785306
 70
8
  0
VERTEX
  8
1
 10
2185.427781639957
 20
196.9377559696589
 70
8
  0
VERTEX
  8
1
 10
2180.010947657032
 20
177.1149466449369
 70
8
  0
VERTEX
  8
1
 10
2179.611382598922
 20
164.1555671337018
  0
VERTEX
  8
1
 10
1915.581035089894
 20
164.1605589801419
  0
SEQEND
  0
POLYLINE
  8
14
 66
1
 70
0
  0
VERTEX
  8
14
 10
1963.896598291798
 20
164.1596243793119
  0
VERTEX
  8
14
 10
2199.191252781672
 20
227.1749209590298
  0
VERTEX
  8
14
 10
2186.784696054860
 20
219.0411303454984
 70
8
  0
VERTEX
  8
14
 10
2174.206313562794
 20
202.4449942523587
 70
8
  0
VERTEX
  8
14
 10
2167.565535974904
 20
178.2814047748197
 70
8
  0
VERTEX
  8
14
 10
2167.104749155446
 20
164.1558001453031
  0
VERTEX
  8
14
 10
1963.896598291798
 20
164.1596243793119
  0
SEQEND
  0
POINT
  8
2
 10
1963.896598291798
 20
164.1596243793119
  0
POINT
  8
2
 10
2199.191252781672
 20
227.1749209590298
  0
POINT
  8
2
 10
2167.104749155446
 20
164.1558001453031
  0
POINT
  8
2
 10
1915.581035089894
 20
164.1605589801419
  0
POINT
  8
2
 10
2240.656127405568
 20
251.2203619891751
  0
POINT
  8
2
 10
2243.889861154639
 20
239.1458681991840
  0
POINT
  8
2
 10
2179.611382598922
 20
164.1555671337018
  0
POINT
  8
3
 10
2199.497575235768
 20
212.8309748584378
  0
POINT
  8
3
 10
2195.087394190236
 20
209.6183035785306
  0
POINT
  8
3
 10
2185.427781639957
 20
196.9377559696589
  0
POINT
  8
3
 10
2180.010947657032
 20
177.1149466449369
  0
LINE
  8
8
 10
2132.125777674122
 20
220.3972647601712
 11
2132.105025720997
 21
164.1814444476712
  0
POINT
  8
2
 10
2132.125777674122
 20
220.3972647601712
  0
POINT
  8
2
 10
2132.105025720997
 20
164.1814444476712
  0
LINE
  8
6
 10
1915.581035089894
 20
164.1605589801419
 11
2179.611382598922
 21
164.1555671337018
  0
ENDBLK
  0
BLOCK
  8
1
  2
8
 70
64
 10
0.0
 20
0.0
  0
LINE
  8
7
 10
2289.310734206352
 20
12.85134881734848
 11
2588.089648621772
 21
12.85134881734848
  0
TEXT
  8
1
 10
2420.475190953505
 20
13.75134351442712
 40
3.000000119209290
 50
0.0000000000000000
 51
0.0000000000000000
 71
0
  1
Size: S
  0
TEXT
  8
1
 10
2420.475191832301
 20
9.851343359455210
 40
3.000000119209290
 50
0.0000000000000000
 51
0.0000000000000000
 71
0
  1
Piece Name: WAIST LACE
  0
TEXT
  8
1
 10
2420.475192711097
 20
5.951343204483303
 40
3.000000119209290
 50
0.0000000000000000
 51
0.0000000000000000
 71
0
  1
Category: CUT  - 1
  0
TEXT
  8
1
 10
2420.475193589893
 20
2.051343049511394
 40
3.000000119209290
 50
0.0000000000000000
 51
0.0000000000000000
 71
0
  1
Annotation: BROWNIE- BRIJESH
  0
TEXT
  8
1
 10
2420.475191832301
 20
9.851343359455210
 40
3.000000119209290
 50
0.0000000000000000
 51
0.0000000000000000
 71
0
  1
Material: LACE
  0
TEXT
  8
1
 10
2420.475192711097
 20
5.951343204483303
 40
3.000000119209290
 50
0.0000000000000000
 51
0.0000000000000000
 71
0
  1
Quantity: 1
  0
POLYLINE
  8
1
 66
1
 70
0
  0
VERTEX
  8
1
 10
2438.701808786098
 20
0.0000000000000000
  0
VERTEX
  8
1
 10
2189.307361578648
 20
0.6799048185348511
  0
VERTEX
  8
1
 10
2176.801397079069
 20
0.7140027104475166
  0
VERTEX
  8
1
 10
2177.644128536884
 20
25.70704638957977
  0
VERTEX
  8
1
 10
2190.151086783115
 20
25.70268809795380
  0
VERTEX
  8
1
 10
2300.551072096531
 20
25.68895995616913
  0
VERTEX
  8
1
 10
2438.698574638073
 20
25.67175984382629
  0
VERTEX
  8
1
 10
2438.701808786098
 20
0.0000000000000000
  0
SEQEND
  0
POLYLINE
  8
14
 66
1
 70
0
  0
VERTEX
  8
14
 10
2438.701808786098
 20
0.0000000000000000
  0
VERTEX
  8
14
 10
2189.307361578648
 20
0.6799048185348511
  0
VERTEX
  8
14
 10
2190.151089167301
 20
25.70269763469696
  0
VERTEX
  8
14
 10
2300.551063388928
 20
25.67210770185838
 70
8
  0
VERTEX
  8
14
 10
2431.379502749149
 20
25.67176282405853
 70
8
  0
VERTEX
  8
14
 10
2438.698574042026
 20
25.67176043987274
  0
VERTEX
  8
14
 10
2438.701808786098
 20
0.0000000000000000
  0
SEQEND
  0
POINT
  8
2
 10
2438.701808786098
 20
0.0000000000000000
  0
POINT
  8
2
 10
2189.307361578648
 20
0.6799048185348511
  0
POINT
  8
2
 10
2190.151089167301
 20
25.70269763469696
  0
POINT
  8
2
 10
2300.551063388928
 20
25.67210770185838
  0
POINT
  8
2
 10
2431.379502749149
 20
25.67176282405853
  0
POINT
  8
2
 10
2438.698574042026
 20
25.67176043987274
  0
POINT
  8
2
 10
2438.701808786098
 20
0.0000000000000000
  0
POINT
  8
2
 10
2189.307361578648
 20
0.6799048185348511
  0
POINT
  8
2
 10
2176.801397079069
 20
0.7140027104475166
  0
POINT
  8
2
 10
2177.644128536884
 20
25.70704638957977
  0
POINT
  8
2
 10
2190.151086783115
 20
25.70268809795380
  0
POINT
  8
2
 10
2300.551072096531
 20
25.68895995616913
  0
POINT
  8
2
 10
2438.698574638073
 20
25.67175984382629
  0
POINT
  8
4
 10
2300.551072096531
 20
25.68895995616913
 30
6.350078639488226
 50
-90.00712915748741
  0
POINT
  8
4
 10
2300.551063388928
 20
25.67210770185838
 30
6.350078639488263
 50
-90.00765191375585
  0
POINT
  8
4
 10
2431.379502749149
 20
25.67176282405853
 30
4.799995422401089
 50
-89.99976751870632
230
4.799999892711639
  0
LINE
  8
6
 10
2438.701808786098
 20
0.0000000000000000
 11
2438.698574638073
 21
25.67175984382629
  0
ENDBLK
  0
BLOCK
  8
1
  2
9
 70
64
 10
0.0
 20
0.0
  0
LINE
  8
7
 10
3066.257477483384
 20
136.2173470937799
 11
3180.319040089851
 21
136.2281555905479
  0
TEXT
  8
1
 10
3092.913258852184
 20
137.7227500144304
 40
5.000000000000000
 50
0.0000000000000000
 51
0.0000000000000000
 71
0
  1
Size: S
  0
TEXT
  8
1
 10
3092.913259070741
 20
131.2227500144304
 40
5.000000000000000
 50
0.0000000000000000
 51
0.0000000000000000
 71
0
  1
Piece Name: FRONT BOTTAM
  0
TEXT
  8
1
 10
3092.913259289298
 20
124.7227500144304
 40
5.000000000000000
 50
0.0000000000000000
 51
0.0000000000000000
 71
0
  1
Category: CUT  - 1
  0
TEXT
  8
1
 10
3092.913259507855
 20
118.2227500144304
 40
5.000000000000000
 50
0.0000000000000000
 51
0.0000000000000000
 71
0
  1
Annotation: BROWNIE- BRIJESH
  0
TEXT
  8
1
 10
3092.913259070741
 20
131.2227500144304
 40
5.000000000000000
 50
0.0000000000000000
 51
0.0000000000000000
 71
0
  1
Material: SHL
  0
TEXT
  8
1
 10
3092.913259289298
 20
124.7227500144304
 40
5.000000000000000
 50
0.0000000000000000
 51
0.0000000000000000
 71
0
  1
Quantity: 1
  0
POLYLINE
  8
1
 66
1
 70
0
  0
VERTEX
  8
1
 10
3015.733102721489
 20
136.2125279534919
  0
VERTEX
  8
1
 10
3013.898996276176
 20
209.1576268304451
 70
8
  0
VERTEX
  8
1
 10
2998.553842467582
 20
304.6568944085701
 70
8
  0
VERTEX
  8
1
 10
2958.305581969536
 20
435.6951024163826
  0
VERTEX
  8
1
 10
3137.248834533012
 20
520.1515935141904
  0
VERTEX
  8
1
 10
3176.978448790825
 20
436.1735417474372
 70
8
  0
VERTEX
  8
1
 10
3200.855325621879
 20
367.0595433343513
 70
8
  0
VERTEX
  8
1
 10
3217.761948461035
 20
297.8650919547567
 70
8
  0
VERTEX
  8
1
 10
3227.737940516091
 20
227.2397351328596
 70
8
  0
VERTEX
  8
1
 10
3230.753625792778
 20
136.2328602899177
  0
VERTEX
  8
1
 10
3015.733102721489
 20
136.2125279534919
  0
SEQEND
  0
POLYLINE
  8
14
 66
1
 70
0
  0
VERTEX
  8
14
 10
3028.237070006645
 20
136.2137486566169
  0
VERTEX
  8
14
 10
3026.365693969047
 20
210.0686909783943
 70
8
  0
VERTEX
  8
14
 10
3010.705102843559
 20
307.5887944329841
 70
8
  0
VERTEX
  8
14
 10
2973.637155455864
 20
429.1087987054451
  0
VERTEX
  8
14
 10
3131.521905822075
 20
503.6263920892341
  0
VERTEX
  8
14
 10
3165.417856139457
 20
431.4192845452888
 70
8
  0
VERTEX
  8
14
 10
3188.852952880180
 20
363.5676076043708
 70
8
  0
VERTEX
  8
14
 10
3215.282129210747
 20
226.1889531243904
 70
8
  0
VERTEX
  8
14
 10
3218.246911925590
 20
136.2317540277107
  0
VERTEX
  8
14
 10
3028.237070006645
 20
136.2137486566169
  0
SEQEND
  0
POINT
  8
2
 10
3028.237070006645
 20
136.2137486566169
  0
POINT
  8
2
 10
2973.637155455864
 20
429.1087987054451
  0
POINT
  8
2
 10
3131.521905822075
 20
503.6263920892341
  0
POINT
  8
2
 10
3218.246911925590
 20
136.2317540277107
  0
POINT
  8
2
 10
3015.733102721489
 20
136.2125279534919
  0
POINT
  8
2
 10
2958.305581969536
 20
435.6951024163826
  0
POINT
  8
2
 10
3137.248834533012
 20
520.1515935141904
  0
POINT
  8
2
 10
3230.753625792778
 20
136.2328602899177
  0
POINT
  8
3
 10
3013.898996276176
 20
209.1576268304451
  0
POINT
  8
3
 10
2998.553842467582
 20
304.6568944085701
  0
POINT
  8
3
 10
3176.978448790825
 20
436.1735417474372
  0
POINT
  8
3
 10
3200.855325621879
 20
367.0595433343513
  0
POINT
  8
3
 10
3217.761948461035
 20
297.8650919547567
  0
POINT
  8
3
 10
3227.737940516091
 20
227.2397351328596
  0
POLYLINE
  8
8
 66
1
 70
0
  0
VERTEX
  8
8
 10
3120.525049132622
 20
476.6924264062507
  0
VERTEX
  8
8
 10
3134.272607726372
 20
466.8718697656257
 70
8
  0
VERTEX
  8
8
 10
3135.254663390434
 20
438.3940865625007
 70
8
  0
VERTEX
  8
8
 10
3155.876611632622
 20
422.6824166406257
 70
8
  0
VERTEX
  8
8
 10
3156.858667296684
 20
389.2949654687507
 70
8
  0
VERTEX
  8
8
 10
3171.588281554497
 20
373.5832955468757
 70
8
  0
VERTEX
  8
8
 10
3172.570337218559
 20
337.2490574945076
 70
8
  0
VERTEX
  8
8
 10
3186.318506163872
 20
313.6809422601326
 70
8
  0
VERTEX
  8
8
 10
3185.336450499809
 20
282.2576024163826
 70
8
  0
VERTEX
  8
8
 10
3194.174341124809
 20
255.7439305413826
 70
8
  0
VERTEX
  8
8
 10
3195.156396788872
 20
227.2662999261482
 70
8
  0
VERTEX
  8
8
 10
3200.066064757622
 20
200.7526280511482
 70
8
  0
VERTEX
  8
8
 10
3190.246118468559
 20
171.2933995355232
 70
8
  0
VERTEX
  8
8
 10
3200.066064757622
 20
141.8329503167732
  0
SEQEND
  0
POINT
  8
2
 10
3120.525049132622
 20
476.6924264062507
  0
POINT
  8
2
 10
3200.066064757622
 20
141.8329503167732
  0
POINT
  8
3
 10
3134.272607726372
 20
466.8718697656257
  0
POINT
  8
3
 10
3135.254663390434
 20
438.3940865625007
  0
POINT
  8
3
 10
3155.876611632622
 20
422.6824166406257
  0
POINT
  8
3
 10
3156.858667296684
 20
389.2949654687507
  0
POINT
  8
3
 10
3171.588281554497
 20
373.5832955468757
  0
POINT
  8
3
 10
3172.570337218559
 20
337.2490574945076
  0
POINT
  8
3
 10
3186.318506163872
 20
313.6809422601326
  0
POINT
  8
3
 10
3185.336450499809
 20
282.2576024163826
  0
POINT
  8
3
 10
3194.174341124809
 20
255.7439305413826
  0
POINT
  8
3
 10
3195.156396788872
 20
227.2662999261482
  0
POINT
  8
3
 10
3200.066064757622
 20
200.7526280511482
  0
POINT
  8
3
 10
3190.246118468559
 20
171.2933995355232
  0
TEXT
  8
8
 10
3168.979941334945
 20
284.3242885297238
 40
10.00000000000000
 50
271.0000043539159
 51
0.0000000000000000
 71
0
  1
TOTAL GATHER 50 CM
  0
LINE
  8
6
 10
3015.733102721489
 20
136.2125279534919
 11
3230.753625792778
 21
136.2328602899177
  0
ENDBLK
  0
BLOCK
  8
1
  2
10
 70
64
 10
0.0
 20
0.0
  0
LINE
  8
7
 10
3579.702709825503
 20
189.9521199383950
 11
3792.640883334329
 21
189.9521199383952
  0
TEXT
  8
1
 10
3655.796797611109
 20
191.4520990568774
 40
5.000000000000000
 50
0.0000000000000000
 51
0.0000000000000000
 71
0
  1
Size: S
  0
TEXT
  8
1
 10
3655.796801048396
 20
184.9520990568790
 40
5.000000000000000
 50
0.0000000000000000
 51
0.0000000000000000
 71
0
  1
Piece Name: MID SLEEVE
  0
TEXT
  8
1
 10
3655.796804485683
 20
178.4520990568805
 40
5.000000000000000
 50
0.0000000000000000
 51
0.0000000000000000
 71
0
  1
Category: CUT-2
  0
TEXT
  8
1
 10
3655.796807922970
 20
171.9520990568820
 40
5.000000000000000
 50
0.0000000000000000
 51
0.0000000000000000
 71
0
  1
Annotation: BROWNIE- BRIJESH
  0
TEXT
  8
1
 10
3655.796801048396
 20
184.9520990568790
 40
5.000000000000000
 50
0.0000000000000000
 51
0.0000000000000000
 71
0
  1
Material: SHL
  0
TEXT
  8
1
 10
3655.796804485683
 20
178.4520990568805
 40
5.000000000000000
 50
0.0000000000000000
 51
0.0000000000000000
 71
0
  1
Quantity: 2
  0
POLYLINE
  8
1
 66
1
 70
0
  0
VERTEX
  8
1
 10
3507.118805238922
 20
382.7326611690123
  0
VERTEX
  8
1
 10
3717.546003648955
 20
387.7170495204527
  0
VERTEX
  8
1
 10
3734.332178423125
 20
353.4870652370054
 70
8
  0
VERTEX
  8
1
 10
3754.325617143828
 20
341.4283494166929
 70
8
  0
VERTEX
  8
1
 10
3769.947641679961
 20
334.4216660670836
 70
8
  0
VERTEX
  8
1
 10
3785.884550401885
 20
326.3633660487730
 70
8
  0
VERTEX
  8
1
 10
3829.864366838652
 20
295.0053528956968
 70
8
  0
VERTEX
  8
1
 10
3860.800379106719
 20
255.4800919704040
 70
8
  0
VERTEX
  8
1
 10
3873.344591448028
 20
217.1339539699157
 70
8
  0
VERTEX
  8
1
 10
3876.107691118438
 20
177.7457169704040
 70
8
  0
VERTEX
  8
1
 10
3875.699232408721
 20
169.2299584559997
 70
8
  0
VERTEX
  8
1
 10
3864.269979784209
 20
127.1517495326599
 70
8
  0
VERTEX
  8
1
 10
3843.523805925566
 20
96.17303172870479
 70
8
  0
VERTEX
  8
1
 10
3830.009883253293
 20
83.29509538455667
 70
8
  0
VERTEX
  8
1
 10
3807.111938783843
 20
68.23574344440303
 70
8
  0
VERTEX
  8
1
 10
3748.944567033965
 20
43.56385509296260
 70
8
  0
VERTEX
  8
1
 10
3729.638365099150
 20
30.79970638080440
 70
8
  0
VERTEX
  8
1
 10
3722.371118852812
 20
15.84935466571650
 70
8
  0
VERTEX
  8
1
 10
3719.965227434355
 20
-7.766100961724902
  0
VERTEX
  8
1
 10
3507.118891069610
 20
-2.724711496392871
  0
VERTEX
  8
1
 10
3499.372564073237
 20
98.97644075528163
 70
8
  0
VERTEX
  8
1
 10
3496.223276445587
 20
190.0037125758728
 70
8
  0
VERTEX
  8
1
 10
3499.372499773223
 20
281.0312775783142
 70
8
  0
VERTEX
  8
1
 10
3507.118805238922
 20
382.7326611690123
  0
SEQEND
  0
POLYLINE
  8
14
 66
1
 70
0
  0
VERTEX
  8
14
 10
3518.723505327423
 20
370.5040482692320
  0
VERTEX
  8
14
 10
3708.728922197539
 20
375.0047043971617
  0
VERTEX
  8
14
 10
3711.906755754668
 20
365.8555726222593
 70
8
  0
VERTEX
  8
14
 10
3725.692861864287
 20
344.4530800990660
 70
8
  0
VERTEX
  8
14
 10
3749.145949375657
 20
330.0520111162942
 70
8
  0
VERTEX
  8
14
 10
3764.692743608672
 20
323.0798844508726
 70
8
  0
VERTEX
  8
14
 10
3779.905141440381
 20
315.4256135814094
 70
8
  0
VERTEX
  8
14
 10
3821.353510210234
 20
285.8502701930603
 70
8
  0
VERTEX
  8
14
 10
3849.685877153594
 20
249.7601823024353
 70
8
  0
VERTEX
  8
14
 10
3863.611086199004
 20
178.0379609279235
 70
8
  0
VERTEX
  8
14
 10
3863.238275835234
 20
170.2180985622009
 70
8
  0
VERTEX
  8
14
 10
3859.058893511015
 20
148.1761674098571
 70
8
  0
VERTEX
  8
14
 10
3822.099411122973
 20
92.97358199447032
 70
8
  0
VERTEX
  8
14
 10
3801.241663286406
 20
79.27159587665400
 70
8
  0
VERTEX
  8
14
 10
3743.760592974012
 20
54.93826115996242
 70
8
  0
VERTEX
  8
14
 10
3720.192316362578
 20
39.19888774677119
 70
8
  0
VERTEX
  8
14
 10
3710.116583055490
 20
18.31420973753339
 70
8
  0
VERTEX
  8
14
 10
3708.728822061736
 20
5.003536146124219
  0
VERTEX
  8
14
 10
3518.723581621368
 20
9.503910940130567
  0
VERTEX
  8
14
 10
3508.723318655979
 20
190.0036784923198
 70
8
  0
VERTEX
  8
14
 10
3518.723505327423
 20
370.5040482692320
  0
SEQEND
  0
POINT
  8
2
 10
3518.723505327423
 20
370.5040482692320
  0
POINT
  8
2
 10
3708.728922197539
 20
375.0047043971617
  0
POINT
  8
2
 10
3764.692743608672
 20
323.0798844508726
  0
POINT
  8
2
 10
3779.905141440381
 20
315.4256135814094
  0
POINT
  8
2
 10
3821.353510210234
 20
285.8502701930603
  0
POINT
  8
2
 10
3863.611086199004
 20
178.0379609279235
  0
POINT
  8
2
 10
3863.238275835234
 20
170.2180985622009
  0
POINT
  8
2
 10
3822.099411122973
 20
92.97358199447032
  0
POINT
  8
2
 10
3801.241663286406
 20
79.27159587665400
  0
POINT
  8
2
 10
3708.728822061736
 20
5.003536146124219
  0
POINT
  8
2
 10
3518.723581621368
 20
9.503910940130567
  0
POINT
  8
2
 10
3508.723318655979
 20
190.0036784923198
  0
POINT
  8
2
 10
3507.118805238922
 20
382.7326611690123
  0
POINT
  8
2
 10
3717.546003648955
 20
387.7170495204527
  0
POINT
  8
2
 10
3769.947641679961
 20
334.4216660670836
  0
POINT
  8
2
 10
3785.884550401885
 20
326.3633660487730
  0
POINT
  8
2
 10
3829.864366838652
 20
295.0053528956968
  0
POINT
  8
2
 10
3876.107691118438
 20
177.7457169704040
  0
POINT
  8
2
 10
3875.699232408721
 20
169.2299584559997
  0
POINT
  8
2
 10
3830.009883253293
 20
83.29509538455667
  0
POINT
  8
2
 10
3807.111938783843
 20
68.23574344440303
  0
POINT
  8
2
 10
3719.965227434355
 20
-7.766100961724902
  0
POINT
  8
2
 10
3507.118891069610
 20
-2.724711496392871
  0
POINT
  8
2
 10
3496.223276445587
 20
190.0037125758728
  0
POINT
  8
3
 10
3734.332178423125
 20
353.4870652370054
  0
POINT
  8
3
 10
3754.325617143828
 20
341.4283494166929
  0
POINT
  8
3
 10
3769.947641679961
 20
334.4216660670836
  0
POINT
  8
3
 10
3785.884550401885
 20
326.3633660487730
  0
POINT
  8
3
 10
3829.864366838652
 20
295.0053528956968
  0
POINT
  8
3
 10
3860.800379106719
 20
255.4800919704040
  0
POINT
  8
3
 10
3873.344591448028
 20
217.1339539699157
  0
POINT
  8
3
 10
3876.107691118438
 20
177.7457169704040
  0
POINT
  8
3
 10
3875.699232408721
 20
169.2299584559997
  0
POINT
  8
3
 10
3864.269979784209
 20
127.1517495326599
  0
POINT
  8
3
 10
3843.523805925566
 20
96.17303172870479
  0
POINT
  8
3
 10
3830.009883253293
 20
83.29509538455667
  0
POINT
  8
3
 10
3807.111938783843
 20
68.23574344440303
  0
POINT
  8
3
 10
3748.944567033965
 20
43.56385509296260
  0
POINT
  8
3
 10
3729.638365099150
 20
30.79970638080440
  0
POINT
  8
3
 10
3722.371118852812
 20
15.84935466571650
  0
POINT
  8
3
 10
3499.372564073237
 20
98.97644075528163
  0
POINT
  8
3
 10
3496.223276445587
 20
190.0037125758728
  0
POINT
  8
3
 10
3499.372499773223
 20
281.0312775783142
  0
POINT
  8
4
 10
3769.947641679961
 20
334.4216660670836
 30
4.800083352650324
 50
-114.9247184663744
230
4.799999892711639
  0
POINT
  8
4
 10
3785.884550401885
 20
326.3633660487730
 30
4.800009895295851
 50
-118.7648346064409
230
4.799999892711639
  0
POINT
  8
4
 10
3876.107691118438
 20
177.7457169704040
 30
4.800068434748167
 50
178.6506564665813
230
4.799999892711639
  0
POINT
  8
4
 10
3830.009883253293
 20
83.29509538455667
 30
4.800290980982391
 50
129.2604267368500
230
4.799999892711639
  0
POINT
  8
4
 10
3807.111938783843
 20
68.23574344440303
 30
4.800020033098822
 50
117.9624092677536
230
4.799999892711639
  0
POINT
  8
4
 10
3496.223276445587
 20
190.0037125758728
 30
6.350097656249659
 50
0.0000286877105317
  0
POINT
  8
4
 10
3764.692743608672
 20
323.0798844508726
 30
4.800055433385372
 50
-114.8516709631930
230
4.799999892711639
  0
POINT
  8
4
 10
3779.905141440381
 20
315.4256135814094
 30
4.800081373623973
 50
-118.6775812190845
230
4.799999892711639
  0
POINT
  8
4
 10
3863.611086199004
 20
178.0379609279235
 30
4.799885512051493
 50
178.6660477363101
230
4.799999892711639
  0
POINT
  8
4
 10
3822.099411122973
 20
92.97358199447032
 30
4.800161678760392
 50
129.2767679623743
230
4.799999892711639
  0
POINT
  8
4
 10
3801.241663286406
 20
79.27159587665400
 30
4.799969337201543
 50
117.9710056565697
230
4.799999892711639
  0
POINT
  8
4
 10
3508.723318655979
 20
190.0036784923198
 30
6.350097656250494
 50
0.0000225933820891
  0
TEXT
  8
8
 10
3748.149474838820
 20
52.82719890399953
 40
7.500000000000000
 50
0.0000000000000000
 51
0.0000000000000000
 71
0
  1
FRT
  0
TEXT
  8
8
 10
3751.766570786086
 20
316.0303239039994
 40
7.500000000000000
 50
0.0000000000000000
 51
0.0000000000000000
 71
0
  1
BK
  0
ENDBLK
  0
BLOCK
  8
1
  2
11
 70
64
 10
0.0
 20
0.0
  0
LINE
  8
7
 10
3979.009515662420
 20
12.50008701604685
 11
4194.453561892974
 21
12.50008701604699
  0
TEXT
  8
1
 10
4068.506538132181
 20
13.40008545852941
 40
3.000000119209290
 50
0.0000000000000000
 51
0.0000000000000000
 71
0
  1
Size: S
  0
TEXT
  8
1
 10
4068.506538394449
 20
9.500085303557343
 40
3.000000119209290
 50
0.0000000000000000
 51
0.0000000000000000
 71
0
  1
Piece Name: SLV MID LACE
  0
TEXT
  8
1
 10
4068.506538656718
 20
5.600085148585281
 40
3.000000119209290
 50
0.0000000000000000
 51
0.0000000000000000
 71
0
  1
Category: CUT-2
  0
TEXT
  8
1
 10
4068.506538918986
 20
1.700084993613218
 40
3.000000119209290
 50
0.0000000000000000
 51
0.0000000000000000
 71
0
  1
Annotation: BROWNIE- BRIJESH
  0
TEXT
  8
1
 10
4068.506538394449
 20
9.500085303557343
 40
3.000000119209290
 50
0.0000000000000000
 51
0.0000000000000000
 71
0
  1
Material: LACE
  0
TEXT
  8
1
 10
4068.506538656718
 20
5.600085148585281
 40
3.000000119209290
 50
0.0000000000000000
 51
0.0000000000000000
 71
0
  1
Quantity: 2
  0
POLYLINE
  8
1
 66
1
 70
0
  0
VERTEX
  8
1
 10
4277.596005178356
 20
25.00017166137695
  0
VERTEX
  8
1
 10
4280.061767897868
 20
0.0000000000000000
  0
VERTEX
  8
1
 10
4267.501112213157
 20
0.0000738962904733
  0
VERTEX
  8
1
 10
4086.984740486168
 20
0.0000214442030710
  0
VERTEX
  8
1
 10
3906.461764564537
 20
0.0001549586073679
  0
VERTEX
  8
1
 10
3893.940325965904
 20
0.0000786646620554
  0
VERTEX
  8
1
 10
3895.406476249717
 20
24.99999283397358
  0
VERTEX
  8
1
 10
3907.927969671154
 20
25.00001430511475
  0
VERTEX
  8
1
 10
4086.981695867443
 20
25.00007629394531
  0
VERTEX
  8
1
 10
4265.035370578788
 20
25.00015257442158
  0
VERTEX
  8
1
 10
4277.596005178356
 20
25.00017166137695
  0
SEQEND
  0
POLYLINE
  8
14
 66
1
 70
0
  0
VERTEX
  8
14
 10
4265.035370565319
 20
25.00015258789063
  0
VERTEX
  8
14
 10
4267.501112199688
 20
0.0000739097595214
  0
VERTEX
  8
14
 10
4086.984738088512
 20
0.0000238418579101
 70
8
  0
VERTEX
  8
14
 10
3906.461669197105
 20
0.0000214442030710
  0
VERTEX
  8
14
 10
3907.927988744640
 20
24.99999523162842
  0
VERTEX
  8
14
 10
4086.981695867443
 20
25.00007629394531
 70
8
  0
VERTEX
  8
14
 10
4265.035370565319
 20
25.00015258789063
  0
SEQEND
  0
POINT
  8
2
 10
4265.035370565319
 20
25.00015258789063
  0
POINT
  8
2
 10
4267.501112199688
 20
0.0000739097595214
  0
POINT
  8
2
 10
4086.984738088512
 20
0.0000238418579101
  0
POINT
  8
2
 10
3906.461669197105
 20
0.0000214442030710
  0
POINT
  8
2
 10
3907.927988744640
 20
24.99999523162842
  0
POINT
  8
2
 10
4086.981695867443
 20
25.00007629394531
  0
POINT
  8
2
 10
4277.596005178356
 20
25.00017166137695
  0
POINT
  8
2
 10
4280.061767897868
 20
0.0000000000000000
  0
POINT
  8
2
 10
4267.501112213157
 20
0.0000738962904733
  0
POINT
  8
2
 10
4086.984740486168
 20
0.0000214442030710
  0
POINT
  8
2
 10
3906.461764564537
 20
0.0001549586073679
  0
POINT
  8
2
 10
3893.940325965904
 20
0.0000786646620554
  0
POINT
  8
2
 10
3895.406476249717
 20
24.99999283397358
  0
POINT
  8
2
 10
3907.927969671154
 20
25.00001430511475
  0
POINT
  8
2
 10
4086.981695867443
 20
25.00007629394531
  0
POINT
  8
2
 10
4265.035370578788
 20
25.00015257442158
  0
POINT
  8
4
 10
4086.984740486168
 20
0.0000214442030710
 30
6.350097656250018
 50
89.99998713621343
  0
POINT
  8
4
 10
4086.981695867443
 20
25.00007629394531
 30
6.350097656250050
 50
-89.99997780890664
  0
POINT
  8
4
 10
4086.984738088512
 20
0.0000238418579101
 30
6.350097656249925
 50
90.00000832639076
  0
POINT
  8
4
 10
4086.981695867443
 20
25.00007629394531
 30
6.350097656250048
 50
-89.99997475699820
  0
ENDBLK
  0
BLOCK
  8
1
  2
12
 70
64
 10
0.0
 20
0.0
  0
LINE
  8
7
 10
4534.529894764728
 20
117.5360124485570
 11
4635.121848997265
 21
117.5360124485570
  0
TEXT
  8
1
 10
4554.413995830054
 20
120.6236619464994
 40
4.999999999999999
 50
356.9999990059010
 51
0.0000000000000000
 71
0
  1
Size: S
  0
TEXT
  8
1
 10
4554.152315962207
 20
114.1325699764969
 40
4.999999999999999
 50
356.9999990059010
 51
0.0000000000000000
 71
0
  1
Piece Name: SLLEV BTM
  0
TEXT
  8
1
 10
4553.890636094359
 20
107.6414780064945
 40
4.999999999999999
 50
356.9999990059010
 51
0.0000000000000000
 71
0
  1
Category: CUT-2
  0
TEXT
  8
1
 10
4553.628956226512
 20
101.1503860364921
 40
4.999999999999999
 50
356.9999990059010
 51
0.0000000000000000
 71
0
  1
Annotation: BROWNIE- BRIJESH
  0
TEXT
  8
1
 10
4554.152315962207
 20
114.1325699764969
 40
4.999999999999999
 50
356.9999990059010
 51
0.0000000000000000
 71
0
  1
Material: SHL
  0
TEXT
  8
1
 10
4553.890636094359
 20
107.6414780064945
 40
4.999999999999999
 50
356.9999990059010
 51
0.0000000000000000
 71
0
  1
Quantity: 2
  0
POLYLINE
  8
1
 66
1
 70
0
  0
VERTEX
  8
1
 10
4611.156409862410
 20
391.1436749519868
  0
VERTEX
  8
1
 10
4622.334572012052
 20
366.3065172774088
 70
8
  0
VERTEX
  8
1
 10
4648.428562572816
 20
302.8921078747953
 70
8
  0
VERTEX
  8
1
 10
4667.818569633284
 20
232.8386029723720
 70
8
  0
VERTEX
  8
1
 10
4678.555940049001
 20
161.0997008050816
 70
8
  0
VERTEX
  8
1
 10
4681.179006985048
 20
115.5165909833158
 70
8
  0
VERTEX
  8
1
 10
4674.747825314930
 20
32.71715369796397
 70
8
  0
VERTEX
  8
1
 10
4654.113701275209
 20
-50.80759534175741
 70
8
  0
VERTEX
  8
1
 10
4643.343712380746
 20
-77.54140564735280
 70
8
  0
VERTEX
  8
1
 10
4625.872009685853
 20
-111.5784312182223
 70
8
  0
VERTEX
  8
1
 10
4599.383748463014
 20
-156.4703179293429
  0
VERTEX
  8
1
 10
4448.591140201906
 20
-32.92752274806844
  0
VERTEX
  8
1
 10
4457.816232136110
 20
-12.66162881191121
 70
8
  0
VERTEX
  8
1
 10
4472.725435188630
 20
24.08244362537516
 70
8
  0
VERTEX
  8
1
 10
4484.680872848848
 20
74.15555706684245
 70
8
  0
VERTEX
  8
1
 10
4488.559726169923
 20
125.7259081906523
 70
8
  0
VERTEX
  8
1
 10
4484.189465931276
 20
177.2569464749540
 70
8
  0
VERTEX
  8
1
 10
4471.757201482145
 20
227.2137887763117
 70
8
  0
VERTEX
  8
1
 10
4456.499489239076
 20
263.8117646283354
 70
8
  0
VERTEX
  8
1
 10
4446.532085827211
 20
285.1662015027250
  0
VERTEX
  8
1
 10
4611.156409862410
 20
391.1436749519868
  0
SEQEND
  0
POLYLINE
  8
14
 66
1
 70
0
  0
VERTEX
  8
14
 10
4605.715734954837
 20
372.7750673051555
  0
VERTEX
  8
14
 10
4636.642584555642
 20
298.7278568473676
 70
8
  0
VERTEX
  8
14
 10
4666.113505118387
 20
159.9014675346234
 70
8
  0
VERTEX
  8
14
 10
4668.679741314271
 20
115.3770779675688
 70
8
  0
VERTEX
  8
14
 10
4662.400599234597
 20
34.66550562056085
 70
8
  0
VERTEX
  8
14
 10
4631.957064560274
 20
-72.38447436626302
 70
8
  0
VERTEX
  8
14
 10
4596.027906826356
 20
-137.5613737993990
  0
VERTEX
  8
14
 10
4463.952282360414
 20
-29.35320386226522
  0
VERTEX
  8
14
 10
4484.562817505220
 20
20.06670704548014
 70
8
  0
VERTEX
  8
14
 10
4497.037336519578
 20
72.26664415065898
 70
8
  0
VERTEX
  8
14
 10
4501.059595039705
 20
125.7854770726408
 70
8
  0
VERTEX
  8
14
 10
4496.527350834230
 20
179.2635630673613
 70
8
  0
VERTEX
  8
14
 10
4483.555773189882
 20
231.3421868390287
 70
8
  0
VERTEX
  8
14
 10
4462.475073569314
 20
280.5633823600630
  0
VERTEX
  8
14
 10
4605.715734954837
 20
372.7750673051555
  0
SEQEND
  0
POINT
  8
2
 10
4668.679741314271
 20
115.3770779675688
  0
POINT
  8
2
 10
4596.027906826356
 20
-137.5613737993990
  0
POINT
  8
2
 10
4463.952282360414
 20
-29.35320386226522
  0
POINT
  8
2
 10
4501.059595039705
 20
125.7854770726408
  0
POINT
  8
2
 10
4462.475073569314
 20
280.5633823600630
  0
POINT
  8
2
 10
4605.715734954837
 20
372.7750673051555
  0
POINT
  8
2
 10
4681.179006985048
 20
115.5165909833158
  0
POINT
  8
2
 10
4599.383748463014
 20
-156.4703179293429
  0
POINT
  8
2
 10
4448.591140201906
 20
-32.92752274806844
  0
POINT
  8
2
 10
4488.559726169923
 20
125.7259081906523
  0
POINT
  8
2
 10
4446.532085827211
 20
285.1662015027250
  0
POINT
  8
2
 10
4611.156409862410
 20
391.1436749519868
  0
POINT
  8
3
 10
4622.334572012052
 20
366.3065172774088
  0
POINT
  8
3
 10
4648.428562572816
 20
302.8921078747953
  0
POINT
  8
3
 10
4667.818569633284
 20
232.8386029723720
  0
POINT
  8
3
 10
4678.555940049001
 20
161.0997008050816
  0
POINT
  8
3
 10
4681.179006985048
 20
115.5165909833158
  0
POINT
  8
3
 10
4674.747825314930
 20
32.71715369796397
  0
POINT
  8
3
 10
4654.113701275209
 20
-50.80759534175741
  0
POINT
  8
3
 10
4643.343712380746
 20
-77.54140564735280
  0
POINT
  8
3
 10
4625.872009685853
 20
-111.5784312182223
  0
POINT
  8
4
 10
4681.179006985048
 20
115.5165909833158
 30
4.799913194922020
 50
-179.3601718555482
230
4.799999892711639
  0
POINT
  8
4
 10
4488.559726169923
 20
125.7259081906523
 30
4.799973698709634
 50
0.2732749350530429
230
4.799999892711639
  0
POINT
  8
4
 10
4668.679741314271
 20
115.3770779675688
 30
4.799914260755413
 50
-179.3590393013857
230
4.799999892711639
  0
POINT
  8
4
 10
4501.059595039705
 20
125.7854770726408
 30
4.800011754337215
 50
0.2730817400930520
230
4.799999892711639
  0
POLYLINE
  8
8
 66
1
 70
0
  0
VERTEX
  8
8
 10
4604.219711712221
 20
347.9186772412503
  0
VERTEX
  8
8
 10
4610.348862102846
 20
337.5741337842190
 70
8
  0
VERTEX
  8
8
 10
4610.396011761049
 20
317.5335454053129
 70
8
  0
VERTEX
  8
8
 10
4624.295547893861
 20
306.7760991162504
 70
8
  0
VERTEX
  8
8
 10
4624.921921184877
 20
276.6854619092192
 70
8
  0
VERTEX
  8
8
 10
4638.289535930971
 20
255.9371708935942
 70
8
  0
VERTEX
  8
8
 10
4631.676834514955
 20
236.2515019482817
 70
8
  0
VERTEX
  8
8
 10
4648.611343792299
 20
219.7662114209379
 70
8
  0
VERTEX
  8
8
 10
4641.348617962221
 20
187.8692387646879
 70
8
  0
VERTEX
  8
8
 10
4652.024734905580
 20
158.3578251904692
 70
8
  0
VERTEX
  8
8
 10
4642.482651165346
 20
131.4693211621488
 70
8
  0
VERTEX
  8
8
 10
4654.504745891908
 20
106.3399266308988
 70
8
  0
VERTEX
  8
8
 10
4640.523117473939
 20
79.68734255497111
 70
8
  0
VERTEX
  8
8
 10
4654.009293011049
 20
61.15861406986369
 70
8
  0
VERTEX
  8
8
 10
4637.807205608705
 20
28.62412920658244
 70
8
  0
VERTEX
  8
8
 10
4642.294510296205
 20
8.347639948769938
 70
8
  0
VERTEX
  8
8
 10
4625.159653118471
 20
-20.79756268794881
 70
8
  0
VERTEX
  8
8
 10
4626.955002239564
 20
-49.83595380123006
 70
8
  0
VERTEX
  8
8
 10
4604.564712932924
 20
-73.13581952388631
 70
8
  0
VERTEX
  8
8
 10
4603.206833294252
 20
-98.66743573482381
 70
8
  0
VERTEX
  8
8
 10
4586.721390179017
 20
-115.6019450121676
  0
SEQEND
  0
POINT
  8
2
 10
4604.219711712221
 20
347.9186772412503
  0
POINT
  8
2
 10
4586.721390179017
 20
-115.6019450121676
  0
POINT
  8
3
 10
4610.348862102846
 20
337.5741337842190
  0
POINT
  8
3
 10
4610.396011761049
 20
317.5335454053129
  0
POINT
  8
3
 10
4624.295547893861
 20
306.7760991162504
  0
POINT
  8
3
 10
4624.921921184877
 20
276.6854619092192
  0
POINT
  8
3
 10
4638.289535930971
 20
255.9371708935942
  0
POINT
  8
3
 10
4631.676834514955
 20
236.2515019482817
  0
POINT
  8
3
 10
4648.611343792299
 20
219.7662114209379
  0
POINT
  8
3
 10
4641.348617962221
 20
187.8692387646879
  0
POINT
  8
3
 10
4652.024734905580
 20
158.3578251904692
  0
POINT
  8
3
 10
4642.482651165346
 20
131.4693211621488
  0
POINT
  8
3
 10
4654.504745891908
 20
106.3399266308988
  0
POINT
  8
3
 10
4640.523117473939
 20
79.68734255497111
  0
POINT
  8
3
 10
4654.009293011049
 20
61.15861406986369
  0
POINT
  8
3
 10
4637.807205608705
 20
28.62412920658244
  0
POINT
  8
3
 10
4642.294510296205
 20
8.347639948769938
  0
POINT
  8
3
 10
4625.159653118471
 20
-20.79756268794881
  0
POINT
  8
3
 10
4626.955002239564
 20
-49.83595380123006
  0
POINT
  8
3
 10
4604.564712932924
 20
-73.13581952388631
  0
POINT
  8
3
 10
4603.206833294252
 20
-98.66743573482381
  0
TEXT
  8
8
 10
4629.995800862888
 20
14.75432814926738
 40
10.00000000000000
 50
87.95557047478776
 51
0.0000000000000000
 71
0
  1
TOTAL GATHER  35.7 CM
  0
ENDBLK
  0
BLOCK
  8
1
  2
13
 70
64
 10
0.0
 20
0.0
  0
LINE
  8
7
 10
4930.644348819639
 20
45.03702862444555
 11
4969.660385806944
 21
45.03702862444555
  0
TEXT
  8
1
 10
4951.432367284681
 20
91.11702759447731
 40
6.399999856948853
 50
270.0000000000000
 51
0.0000000000000000
 71
0
  1
Size: S
  0
TEXT
  8
1
 10
4945.032367427732
 20
91.11702759447731
 40
6.399999856948853
 50
270.0000000000000
 51
0.0000000000000000
 71
0
  1
Piece Name: SLV  CUFF SMOKING RDY
  0
TEXT
  8
1
 10
4938.632367570784
 20
91.11702759447731
 40
6.399999856948853
 50
270.0000000000000
 51
0.0000000000000000
 71
0
  1
Annotation: BROWNIE- BRIJESH
  0
TEXT
  8
1
 10
4945.032367427732
 20
91.11702759447731
 40
6.399999856948853
 50
270.0000000000000
 51
0.0000000000000000
 71
0
  1
Material: RDY
  0
TEXT
  8
1
 10
4938.632367570784
 20
91.11702759447731
 40
6.399999856948853
 50
270.0000000000000
 51
0.0000000000000000
 71
0
  1
Quantity: 1
  0
POLYLINE
  8
1
 66
1
 70
0
  0
VERTEX
  8
1
 10
4995.212740527835
 20
-57.46290852478040
  0
VERTEX
  8
1
 10
4905.139902789976
 20
-57.46311442670191
  0
VERTEX
  8
1
 10
4905.139311511900
 20
45.03690464678442
  0
VERTEX
  8
1
 10
4905.138875205900
 20
147.5367735165659
  0
VERTEX
  8
1
 10
4995.118787248518
 20
147.5369797486368
  0
VERTEX
  8
1
 10
4995.165702064421
 20
45.04284842196142
  0
VERTEX
  8
1
 10
4995.212740527835
 20
-57.46290852478040
  0
SEQEND
  0
POLYLINE
  8
14
 66
1
 70
0
  0
VERTEX
  8
14
 10
4982.706974704649
 20
-44.96302859601343
  0
VERTEX
  8
14
 10
4917.639789363137
 20
-44.96292267776056
  0
VERTEX
  8
14
 10
4917.639293452492
 20
45.03703917526678
  0
VERTEX
  8
14
 10
4917.638988276711
 20
135.0367339994855
  0
VERTEX
  8
14
 10
4982.624531199123
 20
135.0370779472891
  0
VERTEX
  8
14
 10
4982.665756900694
 20
45.03695233050024
  0
VERTEX
  8
14
 10
4982.706974704649
 20
-44.96302859601343
  0
SEQEND
  0
POINT
  8
2
 10
4982.706974704649
 20
-44.96302859601343
  0
POINT
  8
2
 10
4917.639789363137
 20
-44.96292267776056
  0
POINT
  8
2
 10
4917.639293452492
 20
45.03703917526678
  0
POINT
  8
2
 10
4917.638988276711
 20
135.0367339994855
  0
POINT
  8
2
 10
4982.624531199123
 20
135.0370779472891
  0
POINT
  8
2
 10
4982.665756900694
 20
45.03695233050024
  0
POINT
  8
2
 10
4995.212740527835
 20
-57.46290852478040
  0
POINT
  8
2
 10
4905.139902789976
 20
-57.46311442670191
  0
POINT
  8
2
 10
4905.139311511900
 20
45.03690464678442
  0
POINT
  8
2
 10
4905.138875205900
 20
147.5367735165659
  0
POINT
  8
2
 10
4995.118787248518
 20
147.5369797486368
  0
POINT
  8
2
 10
4995.165702064421
 20
45.04284842196142
  0
POINT
  8
4
 10
4995.165702064421
 20
45.04284842196142
 30
4.799957785318648
 50
-179.9737408363482
230
4.799999892711639
  0
POINT
  8
4
 10
4982.665756900694
 20
45.03695233050024
 30
4.799957785318781
 50
-179.9737574345097
230
4.799999892711639
  0
LINE
  8
8
 10
4972.634400089170
 20
135.0367234486643
 11
4972.634400089170
 21
-44.96297137555445
  0
POINT
  8
2
 10
4972.634400089170
 20
135.0367234486643
  0
POINT
  8
2
 10
4972.634400089170
 20
-44.96297137555445
  0
LINE
  8
8
 10
4962.634400089170
 20
135.0367234486643
 11
4962.634400089170
 21
-44.96297137555445
  0
POINT
  8
2
 10
4962.634400089170
 20
135.0367234486643
  0
POINT
  8
2
 10
4962.634400089170
 20
-44.96297137555445
  0
LINE
  8
8
 10
4952.634400089170
 20
135.0367234486643
 11
4952.634400089170
 21
-44.96297137555445
  0
POINT
  8
2
 10
4952.634400089170
 20
135.0367234486643
  0
POINT
  8
2
 10
4952.634400089170
 20
-44.96297137555445
  0
LINE
  8
8
 10
4942.634400089170
 20
135.0367234486643
 11
4942.634400089170
 21
-44.96297137555445
  0
POINT
  8
2
 10
4942.634400089170
 20
135.0367234486643
  0
POINT
  8
2
 10
4942.634400089170
 20
-44.96297137555445
  0
TEXT
  8
8
 10
4916.697049859853
 20
31.39326551903678
 40
10.00000000000000
 50
271.0000043539159
 51
0.0000000000000000
 71
0
  1
FRILL
  0
ENDBLK
  0
BLOCK
  8
1
  2
14
 70
64
 10
0.0
 20
0.0
  0
LINE
  8
7
 10
5253.143923903210
 20
62.53754056365558
 11
5292.160494948132
 21
62.53754056365558
  0
TEXT
  8
1
 10
5270.732209425671
 20
112.9375405636556
 40
6.400000000000000
 50
270.0000000000000
 51
0.0000000000000000
 71
0
  1
Size: S
  0
TEXT
  8
1
 10
5264.332209425671
 20
112.9375405636556
 40
6.400000000000000
 50
270.0000000000000
 51
0.0000000000000000
 71
0
  1
Piece Name: SLV  CUFF SMOKING  BLOCK
  0
TEXT
  8
1
 10
5257.932209425671
 20
112.9375405636556
 40
6.400000000000000
 50
270.0000000000000
 51
0.0000000000000000
 71
0
  1
Category: CUT-2
  0
TEXT
  8
1
 10
5251.532209425672
 20
112.9375405636556
 40
6.400000000000000
 50
270.0000000000000
 51
0.0000000000000000
 71
0
  1
Annotation: BROWNIE- BRIJESH
  0
TEXT
  8
1
 10
5264.332209425671
 20
112.9375405636556
 40
6.400000000000000
 50
270.0000000000000
 51
0.0000000000000000
 71
0
  1
Material: BLOCK
  0
TEXT
  8
1
 10
5257.932209425671
 20
112.9375405636556
 40
6.400000000000000
 50
270.0000000000000
 51
0.0000000000000000
 71
0
  1
Quantity: 2
  0
POLYLINE
  8
1
 66
1
 70
0
  0
VERTEX
  8
1
 10
5335.213864470226
 20
-147.4626978549235
  0
VERTEX
  8
1
 10
5210.139697218639
 20
-147.4620779666179
  0
VERTEX
  8
1
 10
5210.138552809460
 20
272.5372394111878
  0
VERTEX
  8
1
 10
5335.118098146993
 20
272.5380095156903
  0
VERTEX
  8
1
 10
5335.213864470226
 20
-147.4626978549235
  0
SEQEND
  0
POLYLINE
  8
14
 66
1
 70
0
  0
VERTEX
  8
14
 10
5305.207055235607
 20
-117.4626024874919
  0
VERTEX
  8
14
 10
5240.139620924694
 20
-117.4623068484538
  0
VERTEX
  8
14
 10
5240.138705397350
 20
242.5373879757649
  0
VERTEX
  8
14
 10
5305.124962772366
 20
242.5377025102035
  0
VERTEX
  8
14
 10
5305.207055235607
 20
-117.4626024874919
  0
SEQEND
  0
POINT
  8
2
 10
5305.207055235607
 20
-117.4626024874919
  0
POINT
  8
2
 10
5240.139620924694
 20
-117.4623068484538
  0
POINT
  8
2
 10
5240.138705397350
 20
242.5373879757649
  0
POINT
  8
2
 10
5305.124962772366
 20
242.5377025102035
  0
POINT
  8
2
 10
5335.213864470226
 20
-147.4626978549235
  0
POINT
  8
2
 10
5210.139697218639
 20
-147.4620779666179
  0
POINT
  8
2
 10
5210.138552809460
 20
272.5372394111878
  0
POINT
  8
2
 10
5335.118098146993
 20
272.5380095156903
  0
LINE
  8
8
 10
5295.134432936413
 20
242.5381556835897
 11
5295.134432936413
 21
-117.4618490847819
  0
POINT
  8
2
 10
5295.134432936413
 20
242.5381556835897
  0
POINT
  8
2
 10
5295.134432936413
 20
-117.4618490847819
  0
LINE
  8
8
 10
5285.134432936413
 20
242.5381556835897
 11
5285.134432936413
 21
-117.4618490847819
  0
POINT
  8
2
 10
5285.134432936413
 20
242.5381556835897
  0
POINT
  8
2
 10
5285.134432936413
 20
-117.4618490847819
  0
LINE
  8
8
 10
5275.134432936413
 20
242.5381556835897
 11
5275.134432936413
 21
-117.4618490847819
  0
POINT
  8
2
 10
5275.134432936413
 20
242.5381556835897
  0
POINT
  8
2
 10
5275.134432936413
 20
-117.4618490847819
  0
LINE
  8
8
 10
5265.134432936413
 20
242.5381556835897
 11
5265.134432936413
 21
-117.4618490847819
  0
POINT
  8
2
 10
5265.134432936413
 20
242.5381556835897
  0
POINT
  8
2
 10
5265.134432936413
 20
-117.4618490847819
  0
TEXT
  8
8
 10
5238.483123966862
 20
7.720071403559309
 40
10.00000000000000
 50
271.0000043539159
 51
0.0000000000000000
 71
0
  1
FRILL
  0
ENDBLK
  0
BLOCK
  8
1
  2
15
 70
64
 10
0.0
 20
0.0
  0
LINE
  8
7
 10
5495.705939628042
 20
200.0000542372163
 11
5529.647410391979
 21
199.9998384453519
  0
TEXT
  8
1
 10
5535.215703660332
 20
177.4609176909629
 40
5.000000000000000
 50
135.0000000000000
 51
0.0000000000000000
 71
0
  1
Size: S
  0
TEXT
  8
1
 10
5538.751237566265
 20
182.0571117686755
 40
5.000000000000000
 50
135.0000000000000
 51
0.0000000000000000
 71
0
  1
Piece Name: SLITE PIPING
  0
TEXT
  8
1
 10
5542.286771472198
 20
186.6533058463881
 40
5.000000000000000
 50
135.0000000000000
 51
0.0000000000000000
 71
0
  1
Category: CUT - 1
  0
TEXT
  8
1
 10
5545.822305378129
 20
191.2494999241006
 40
5.000000000000000
 50
135.0000000000000
 51
0.0000000000000000
 71
0
  1
Annotation: BROWNIE- BRIJESH
  0
TEXT
  8
1
 10
5538.751237566265
 20
182.0571117686755
 40
5.000000000000000
 50
135.0000000000000
 51
0.0000000000000000
 71
0
  1
Material: SHL
  0
TEXT
  8
1
 10
5542.286771472198
 20
186.6533058463881
 40
5.000000000000000
 50
135.0000000000000
 51
0.0000000000000000
 71
0
  1
Quantity: 1
  0
POLYLINE
  8
1
 66
1
 70
0
  0
VERTEX
  8
1
 10
5357.113196635961
 20
327.2790590589306
  0
VERTEX
  8
1
 10
5385.397467883423
 20
355.5635326112652
  0
VERTEX
  8
1
 10
5668.240176986294
 20
72.72083025188991
  0
VERTEX
  8
1
 10
5639.955794471152
 20
44.43661236539242
  0
VERTEX
  8
1
 10
5357.113196635961
 20
327.2790590589306
  0
SEQEND
  0
POINT
  8
2
 10
5357.113196635961
 20
327.2790590589306
  0
POINT
  8
2
 10
5385.397467883423
 20
355.5635326112652
  0
POINT
  8
2
 10
5668.240176986294
 20
72.72083025188991
  0
POINT
  8
2
 10
5639.955794471152
 20
44.43661236539242
  0
ENDBLK
  0
BLOCK
  8
1
  2
16
 70
64
 10
0.0
 20
0.0
  0
LINE
  8
7
 10
5703.058616858899
 20
186.1639751423107
 11
5860.533134681165
 21
186.1639751423107
  0
TEXT
  8
1
 10
5733.195951006012
 20
188.5639819369202
 40
8.000000119209290
 50
0.0000000000000000
 51
0.0000000000000000
 71
0
  1
Size: S
  0
TEXT
  8
1
 10
5733.195949893444
 20
178.1639817819482
 40
8.000000119209290
 50
0.0000000000000000
 51
0.0000000000000000
 71
0
  1
Piece Name: Undefined_1
  0
TEXT
  8
1
 10
5733.195948780877
 20
167.7639816269762
 40
8.000000119209290
 50
0.0000000000000000
 51
0.0000000000000000
 71
0
  1
Annotation: BROWNIE- BRIJESH
  0
TEXT
  8
1
 10
5733.195949893444
 20
178.1639817819482
 40
8.000000119209290
 50
0.0000000000000000
 51
0.0000000000000000
 71
0
  1
Quantity: 1
  0
POLYLINE
  8
1
 66
1
 70
0
  0
VERTEX
  8
1
 10
5630.567428809583
 20
186.1639369953380
  0
VERTEX
  8
1
 10
5630.573285104925
 20
265.7956477828682
  0
VERTEX
  8
1
 10
5618.075515967786
 20
266.0188259113536
  0
VERTEX
  8
1
 10
5619.601147653753
 20
305.6984492965401
 70
8
  0
VERTEX
  8
1
 10
5620.616829139172
 20
318.5140575397716
  0
VERTEX
  8
1
 10
5633.077575904309
 20
317.5257076252208
  0
VERTEX
  8
1
 10
5633.707859995062
 20
323.8441631026925
 70
8
  0
VERTEX
  8
1
 10
5654.652225715100
 20
435.4162754047619
  0
VERTEX
  8
1
 10
5656.820842963635
 20
447.7267993915783
  0
VERTEX
  8
1
 10
5761.088859778821
 20
429.3579448688732
  0
VERTEX
  8
1
 10
5764.559910041272
 20
400.7801975239025
 70
8
  0
VERTEX
  8
1
 10
5769.185592872083
 20
384.7430385578380
 70
8
  0
VERTEX
  8
1
 10
5784.030925971448
 20
365.1639331806408
 70
8
  0
VERTEX
  8
1
 10
5816.305267554700
 20
348.9672054279552
 70
8
  0
VERTEX
  8
1
 10
5837.097236854016
 20
345.9237255085216
 70
8
  0
VERTEX
  8
1
 10
5860.661537391125
 20
344.7498668659435
 70
8
  0
VERTEX
  8
1
 10
5903.097698432385
 20
348.3237232197033
 70
8
  0
VERTEX
  8
1
 10
5957.109215003430
 20
358.4646953571544
  0
VERTEX
  8
1
 10
5981.431458475287
 20
293.5013553329170
  0
VERTEX
  8
1
 10
5990.403129798352
 20
269.5384563434825
  0
VERTEX
  8
1
 10
5978.490574838812
 20
265.7057353683174
  0
VERTEX
  8
1
 10
5934.910557013928
 20
251.6838230121837
  0
VERTEX
  8
1
 10
5922.503959876477
 20
243.5501445759044
 70
8
  0
VERTEX
  8
1
 10
5915.366528513128
 20
235.9477779098213
 70
8
  0
VERTEX
  8
1
 10
5909.925549509222
 20
226.9539424606026
  0
VERTEX
  8
1
 10
5921.211540442883
 20
221.5802349079357
  0
VERTEX
  8
1
 10
5917.525169593274
 20
211.0223735798107
 70
8
  0
VERTEX
  8
1
 10
5915.330803138196
 20
186.1645854938732
  0
VERTEX
  8
1
 10
5630.567428809583
 20
186.1639369953380
  0
SEQEND
  0
POLYLINE
  8
14
 66
1
 70
0
  0
VERTEX
  8
14
 10
5630.567314368665
 20
186.1639751423107
  0
VERTEX
  8
14
 10
5630.573285104925
 20
265.7956477828682
 70
8
  0
VERTEX
  8
14
 10
5633.077575904309
 20
317.5257076252208
 70
8
  0
VERTEX
  8
14
 10
5654.652225715100
 20
435.4162754047619
  0
VERTEX
  8
14
 10
5749.803077918469
 20
418.6536754596935
  0
VERTEX
  8
14
 10
5757.775261146008
 20
379.6390117634044
 70
8
  0
VERTEX
  8
14
 10
5775.812123300726
 20
355.7457896896065
 70
8
  0
VERTEX
  8
14
 10
5813.401310187756
 20
336.8090976703869
 70
8
  0
VERTEX
  8
14
 10
5835.988285285413
 20
333.4732212055431
 70
8
  0
VERTEX
  8
14
 10
5860.643322946722
 20
332.2499629684151
 70
8
  0
VERTEX
  8
14
 10
5949.086944800793
 20
344.2415584552990
  0
VERTEX
  8
14
 10
5969.725010138928
 20
289.1185153949962
  0
VERTEX
  8
14
 10
5978.490612985785
 20
265.7057735152901
  0
VERTEX
  8
14
 10
5934.910557013928
 20
251.6838230121837
  0
VERTEX
  8
14
 10
5922.504131537854
 20
243.5498584736095
 70
8
  0
VERTEX
  8
14
 10
5909.925548774182
 20
226.9539417255626
 70
8
  0
VERTEX
  8
14
 10
5903.284656745374
 20
200.2904666889415
 70
8
  0
VERTEX
  8
14
 10
5902.824051124036
 20
186.1646999347911
  0
VERTEX
  8
14
 10
5630.567314368665
 20
186.1639751423107
  0
SEQEND
  0
POINT
  8
2
 10
5630.567314368665
 20
186.1639751423107
  0
POINT
  8
2
 10
5633.077575904309
 20
317.5257076252208
  0
POINT
  8
2
 10
5654.652225715100
 20
435.4162754047619
  0
POINT
  8
2
 10
5749.803077918469
 20
418.6536754596935
  0
POINT
  8
2
 10
5860.643322946722
 20
332.2499629684151
  0
POINT
  8
2
 10
5949.086944800793
 20
344.2415584552990
  0
POINT
  8
2
 10
5969.725010138928
 20
289.1185153949962
  0
POINT
  8
2
 10
5978.490612985785
 20
265.7057735152901
  0
POINT
  8
2
 10
5934.910557013928
 20
251.6838230121837
  0
POINT
  8
2
 10
5902.824051124036
 20
186.1646999347911
  0
POINT
  8
2
 10
5630.567428809583
 20
186.1639369953380
  0
POINT
  8
2
 10
5630.573285104925
 20
265.7956477828682
  0
POINT
  8
2
 10
5618.075515967786
 20
266.0188259113536
  0
POINT
  8
2
 10
5620.616829139172
 20
318.5140575397716
  0
POINT
  8
2
 10
5633.077575904309
 20
317.5257076252208
  0
POINT
  8
2
 10
5654.652225715100
 20
435.4162754047619
  0
POINT
  8
2
 10
5656.820842963635
 20
447.7267993915783
  0
POINT
  8
2
 10
5761.088859778821
 20
429.3579448688732
  0
POINT
  8
2
 10
5860.661537391125
 20
344.7498668659435
  0
POINT
  8
2
 10
5957.109215003430
 20
358.4646953571544
  0
POINT
  8
2
 10
5981.431458475287
 20
293.5013553329170
  0
POINT
  8
2
 10
5990.403129798352
 20
269.5384563434825
  0
POINT
  8
2
 10
5978.490574838812
 20
265.7057353683174
  0
POINT
  8
2
 10
5934.910557013928
 20
251.6838230121837
  0
POINT
  8
2
 10
5909.925549509222
 20
226.9539424606026
  0
POINT
  8
2
 10
5921.211540442883
 20
221.5802349079357
  0
POINT
  8
2
 10
5915.330803138196
 20
186.1645854938732
  0
POINT
  8
3
 10
5619.601147653753
 20
305.6984492965401
  0
POINT
  8
3
 10
5633.707859995062
 20
323.8441631026925
  0
POINT
  8
3
 10
5764.559910041272
 20
400.7801975239025
  0
POINT
  8
3
 10
5769.185592872083
 20
384.7430385578380
  0
POINT
  8
3
 10
5784.030925971448
 20
365.1639331806408
  0
POINT
  8
3
 10
5816.305267554700
 20
348.9672054279552
  0
POINT
  8
3
 10
5837.097236854016
 20
345.9237255085216
  0
POINT
  8
3
 10
5860.661537391125
 20
344.7498668659435
  0
POINT
  8
3
 10
5903.097698432385
 20
348.3237232197033
  0
POINT
  8
3
 10
5922.503959876477
 20
243.5501445759044
  0
POINT
  8
3
 10
5915.366528513128
 20
235.9477779098213
  0
POINT
  8
3
 10
5917.525169593274
 20
211.0223735798107
  0
POINT
  8
4
 10
5633.077575904309
 20
317.5257076252208
 30
6.350000346197573
 50
-5.292139769636921
  0
POINT
  8
4
 10
5633.077575904309
 20
317.5257076252208
 30
6.350000346197373
 50
-5.291737931461321
  0
POINT
  8
4
 10
5934.910557013928
 20
251.6838230121837
 30
6.349798572834823
 50
113.9060911450394
  0
POINT
  8
4
 10
5633.077575904309
 20
317.5257076252208
 30
6.350000346197576
 50
-5.292139769637240
  0
POINT
  8
4
 10
5633.077575904309
 20
317.5257076252208
 30
6.350000346197576
 50
-5.292139769637240
  0
POINT
  8
4
 10
5934.910557013928
 20
251.6838230121837
 30
6.349798572834851
 50
113.8590628284306
  0
LINE
  8
11
 10
5860.643455726086
 20
332.2497905719982
 11
5860.631401282727
 21
186.1639751423107
  0
POINT
  8
2
 10
5860.643455726086
 20
332.2497905719982
  0
POINT
  8
2
 10
5860.631401282727
 20
186.1639751423107
  0
POINT
  8
13
 10
5997.830955726086
 20
271.0885967243419
  0
CIRCLE
  8
8
 10
5751.690819007336
 20
153.1302227009044
 40
259.6991729736328
  0
LINE
  8
6
 10
5630.567428809583
 20
186.1639369953380
 11
5915.330803138196
 21
186.1645854938732
  0
ENDBLK
  0
ENDSEC
  0
SECTION
  2
ENTITIES
  0
INSERT
  8
1
  2
1
 10
0.0
 20
0.0
  0
INSERT
  8
1
  2
2
 10
0.0
 20
0.0
  0
INSERT
  8
1
  2
3
 10
0.0
 20
0.0
  0
INSERT
  8
1
  2
4
 10
0.0
 20
0.0
  0
INSERT
  8
1
  2
5
 10
0.0
 20
0.0
  0
INSERT
  8
1
  2
6
 10
0.0
 20
0.0
  0
INSERT
  8
1
  2
7
 10
0.0
 20
0.0
  0
INSERT
  8
1
  2
8
 10
0.0
 20
0.0
  0
INSERT
  8
1
  2
9
 10
0.0
 20
0.0
  0
INSERT
  8
1
  2
10
 10
0.0
 20
0.0
  0
INSERT
  8
1
  2
11
 10
0.0
 20
0.0
  0
INSERT
  8
1
  2
12
 10
0.0
 20
0.0
  0
INSERT
  8
1
  2
13
 10
0.0
 20
0.0
  0
INSERT
  8
1
  2
14
 10
0.0
 20
0.0
  0
INSERT
  8
1
  2
15
 10
0.0
 20
0.0
  0
INSERT
  8
1
  2
16
 10
0.0
 20
0.0
  0
TEXT
  8
1
 10
0.0000000000000000
 20
0.0000000000000000
 40
6.350000000000000
 50
0.0000000000000000
 51
0.0000000000000000
 71
0
  1
Style Name: CALLIE-DEC 26 PUR-STYLE-06- 3rd FIT -08-07-2026
  0
TEXT
  8
1
 10
0.0000000000000000
 20
-8.255000000000001
 40
6.350000000000000
 50
0.0000000000000000
 51
0.0000000000000000
 71
0
  1
Grade Rule Table: CALLIE-DEC 26 PUR-STYLE-06- 3rd FIT -08-07-2026
  0
TEXT
  8
1
 10
0.0000000000000000
 20
-16.51000000000000
 40
6.350000000000000
 50
0.0000000000000000
 51
0.0000000000000000
 71
0
  1
Sample Size: S
  0
TEXT
  8
1
 10
0.0000000000000000
 20
-24.76500000000000
 40
6.350000000000000
 50
0.0000000000000000
 51
0.0000000000000000
 71
0
  1
Units: METRIC
  0
TEXT
  8
1
 10
0.0000000000000000
 20
-33.02000000000000
 40
6.350000000000000
 50
0.0000000000000000
 51
0.0000000000000000
 71
0
  1
Tolerance: 0.020000
  0
TEXT
  8
1
 10
0.0000000000000000
 20
-41.27500000000001
 40
6.350000000000000
 50
0.0000000000000000
 51
0.0000000000000000
 71
0
  1
Creation Date: 20-07-2026
  0
TEXT
  8
1
 10
0.0000000000000000
 20
-49.53000000000000
 40
6.350000000000000
 50
0.0000000000000000
 51
0.0000000000000000
 71
0
  1
Creation Time: 11:13
  0
TEXT
  8
1
 10
0.0000000000000000
 20
-57.78500000000000
 40
6.350000000000000
 50
0.0000000000000000
 51
0.0000000000000000
 71
0
  1
Author: TUKATECH, INC.; TUKAcad PE; 1.2.2
  0
ENDSEC
  0
EOF
