<?xml version="1.0" encoding="UTF-8"?>
<svg id="Layer_1" xmlns="http://www.w3.org/2000/svg" version="1.1" viewBox="0 0 841.9 784">
  <!-- Generator: Adobe Illustrator 30.3.0, SVG Export Plug-In . SVG Version: 2.1.3 Build 182)  -->
  <defs>
    <style>
      .st0 {
        fill: #1d1e1c;
      }
    </style>
  </defs>
  <path class="st0" d="M708.8,399.6c-6.3-9.1-12.5-18-18.7-27-1.5-2.2-3.1-4.4-4.6-6.6-.2,0-.4,0-.6,0,0,1,0,1.9,0,2.9,0,32.9,0,65.8,0,98.6,0,.9,0,1.9,0,2.8,0,1.3-.7,2.1-2,2.1-7.7,0-15.3,0-23,0-1.5,0-2.1-.8-2.1-2.2,0-.7,0-1.5,0-2.2,0-50.6,0-101.1,0-151.7,0-.4,0-.9,0-1.3,0-2.7.4-3,3.1-3,6,0,12,0,18,0,1.9,0,3.1.7,4.1,2.3,14.6,21.3,29.3,42.6,44,63.9,8.7,12.6,17.4,25.2,26.1,37.9.6.8,1.2,1.6,2.3,2.9,0-1.7.2-2.8.2-3.9,0-32.7,0-65.3,0-98,0-.9,0-1.9,0-2.8,0-1.3.6-2.1,2-2.1,7.6,0,15.2,0,22.8,0,.6,0,1.5,1.1,1.8,1.9.3.7,0,1.6,0,2.4,0,50.6,0,101.1,0,151.7,0,.7,0,1.5,0,2.2,0,1.4-.7,2.2-2.2,2.2-6.4,0-12.9,0-19.3,0-.9,0-2-.9-2.6-1.7-6.5-9.2-12.9-18.4-19.3-27.7-10-14.5-20-29-30.1-43.6Z"/>
  <path class="st0" d="M292.9,466.1c-12.1,6.3-24.9,8.8-38.4,8.8-13.7,0-26.7-2.9-38.8-9.3-15.4-8.2-26.8-20.2-34.5-35.9-6.3-12.8-8.9-26.4-8.5-40.6.6-19.7,7.1-37.3,20.1-52.3,12.7-14.6,28.7-23.3,47.7-26.2,21.2-3.2,41.4,0,59.6,11.9,15.1,9.8,25.4,23.5,31.6,40.3,4.2,11.4,5.5,23.3,4.7,35.4-1.1,17.9-7.3,34-18.8,47.9-6.9,8.3-15.1,15-24.9,19.9M224.9,345.3c-3.6,3.2-7.6,6-10.7,9.7-11.3,13.8-15.5,29.7-12.5,47.4,2.4,14.5,9.4,26.5,21.1,35.5,10.8,8.3,23.2,11.6,36.8,10.4,19.2-1.8,33.2-11.6,42.3-28.4,6-11,7.8-22.9,6.3-35.2-2.1-17.1-10.2-31-24.7-40-19.2-11.9-39-11.4-58.6.7Z"/>
  <path class="st0" d="M496.5,438.2c8.9-21.5,17.8-42.8,26.6-64.1,8.2-19.8,16.5-39.6,24.7-59.5.7-1.7,1.7-2.5,3.6-2.4,6.1,0,12.3,0,18.4,0,2.1,0,3.2.8,3.9,2.7,4.1,10,8.3,20,12.4,29.9,11,26.3,21.9,52.6,32.9,78.8,6.4,15.4,12.8,30.7,19.2,46.1,1.1,2.5.8,3-1.9,3-8,0-16.1,0-24.1,0-2,0-3.1-.7-3.8-2.5-1.8-4.8-3.9-9.5-5.7-14.2-.7-1.8-1.8-2.6-3.8-2.6-25.6,0-51.3,0-76.9,0-2.2,0-3.3.8-4,2.8-1.8,4.7-3.8,9.3-5.6,14-.7,1.7-1.7,2.5-3.6,2.5-8,0-15.9,0-23.9,0-2.3,0-2.7-.5-1.8-2.6,4.4-10.6,8.8-21.2,13.3-31.9M557,363.4c-8.8,21.6-17.7,43.2-26.6,65.2,1.5.1,2.5.3,3.4.3,11.5,0,23.1,0,34.6,0,6.9,0,13.7,0,20.6,0,2.2,0,2.5-.5,1.7-2.5-1.2-2.9-2.4-5.8-3.6-8.7-8.4-20.2-16.8-40.3-25.2-60.5-.3-.6-.7-1.2-1.3-2.4-1.3,3.2-2.4,5.7-3.6,8.6Z"/>
  <path class="st0" d="M424,376.2c9.6,1.5,18.9,3.5,27.5,7.8,14.3,7.2,22,18.7,23.1,34.9.5,7,.2,13.9-1.7,20.6-3.1,11-10,19.1-19.7,25-8.7,5.3-18.4,7.7-28.3,9.3-14.5,2.3-28.8,1.6-42.8-3.2-13.1-4.5-24.1-12-32.9-22.7-1.8-2.2-1.8-2.6,0-4.8,0-.1.2-.2.3-.3,5.2-5.4,10.5-10.8,15.7-16.2,1.2-1.3,2-1.3,3,.3,8.8,13.3,21.7,19.5,37,21.4,9.4,1.2,18.7.1,27.6-3.1,9.2-3.3,14.2-9.9,15.3-19.5.9-8.1-3.2-14.9-11.2-19.1-5.8-3-12.2-3.7-18.6-4.9-11.5-2.1-23.1-3.9-34.4-6.8-12.2-3.1-21.9-10.2-26.9-22.2-6.2-14.9-5.1-33.1,7.6-46,8.9-9.1,20-13.5,32.2-15.6,13.8-2.4,27.6-1.9,41.2,2,9.9,2.9,18.6,8.1,26.6,14.5,1.4,1.1,2.9,2.3,4.3,3.4,1,.9,1.1,1.7.1,2.8-5.2,5.9-10.4,11.8-15.6,17.7-1,1.1-1.8,1.2-2.9.1-9-8.7-19.8-13.8-32.2-15.5-9.5-1.3-18.7-.7-27.3,3.8-7.3,3.9-11,11.9-8.9,19.5,1.6,5.9,6.1,8.6,11.3,10.7,7.9,3.1,16.3,3.9,24.6,5.2,1.9.3,3.9.6,6,.9Z"/>
  <path class="st0" d="M87.3,348.6c0,30.7,0,61.2,0,91.6,0,.9,0,1.8,0,2.6,0,1.4.7,2.2,2.1,2.2.9,0,1.8,0,2.6,0,25.6,0,51.3,0,76.9,0q4.2,0,4.2,4.3c0,6.7,0,13.4,0,20.2,0,2.8-.3,3.1-3.2,3.1-35.4,0-70.9,0-106.3,0-2.9,0-3.2-.3-3.2-3.1,0-51.4,0-102.7,0-154.1,0-2.9.3-3.2,3.1-3.2,6.9,0,13.7,0,20.6,0,2.7,0,3,.4,3,3.1,0,11,0,22.1,0,33.3Z"/>
</svg>